<?xml version="1.0" encoding="iso-8859-1"?>
<!-- Generator: Adobe Illustrator 19.1.0, SVG Export Plug-In . SVG Version: 6.00 Build 0)  -->
<svg version="1.1" fill="#0092db" id="Capa_1" xmlns="http://www.w3.org/2000/svg" xmlns:xlink="http://www.w3.org/1999/xlink" x="0px" y="0px"
	 viewBox="0 0 63.038 63.038" style="enable-background:new 0 0 63.038 63.038;" xml:space="preserve">
<g>
	<g id="group-13svg">
		<path id="path-1_3_" d="M17.735,63.038c-0.397,0-0.778-0.158-1.061-0.44L0.459,46.372c-0.302-0.302-0.461-0.717-0.438-1.144
			c0.023-0.426,0.228-0.821,0.56-1.088l45-36.102c0.595-0.48,1.458-0.432,1.999,0.109l7.297,7.303c0.541,0.541,0.587,1.403,0.109,2
			L18.905,62.476c-0.267,0.332-0.662,0.536-1.088,0.56C17.79,63.037,17.762,63.038,17.735,63.038z M3.763,45.434l13.849,13.857
			l34.193-42.67l-5.396-5.4L3.763,45.434z"/>
		<path id="path-2_3_" d="M53.816,18.012c-0.396,0-0.778-0.157-1.061-0.44l-7.296-7.302c-0.32-0.32-0.478-0.766-0.432-1.216
			c0.047-0.448,0.293-0.854,0.67-1.101l11.757-7.707c0.593-0.39,1.379-0.309,1.882,0.195l3.244,3.245
			c0.503,0.502,0.584,1.289,0.194,1.884l-7.703,11.763c-0.248,0.379-0.652,0.625-1.102,0.671
			C53.918,18.009,53.867,18.012,53.816,18.012z M48.884,9.453l4.689,4.691l6.023-9.199l-1.518-1.519L48.884,9.453z"/>
		<path id="path-3_3_" d="M33.923,41.954c-0.397,0-0.779-0.176-1.06-0.459l-5.648-5.66c-0.586-0.586-0.586-1.541,0-2.127
			l11.352-11.36c0.281-0.282,0.663-0.442,1.061-0.442l0,0c0.397,0,0.779,0.158,1.06,0.44l4.836,4.839
			c0.557,0.557,0.588,1.449,0.073,2.044l-10.54,12.189c-0.272,0.314-0.664,0.536-1.08,0.536
			C33.959,41.954,33.941,41.954,33.923,41.954z M30.397,34.764l3.448,3.45l8.571-9.895l-2.788-2.79L30.397,34.764z"/>
		<path id="path-4_3_" d="M57.059,13.143c-0.384,0-0.767-0.146-1.06-0.439l-5.675-5.679c-0.586-0.587-0.586-1.536,0-2.123
			c0.586-0.586,1.535-0.586,2.121,0l5.675,5.679c0.586,0.587,0.586,1.537,0,2.123C57.827,12.997,57.443,13.143,57.059,13.143z"/>
		<path id="path-5_3_" d="M22.195,56.141c-0.384,0-0.768-0.147-1.061-0.44L7.35,41.91c-0.586-0.586-0.586-1.536,0-2.122
			c0.586-0.586,1.535-0.586,2.121,0l13.784,13.791c0.586,0.586,0.586,1.536,0,2.122C22.962,55.994,22.579,56.141,22.195,56.141z"/>
		<path id="path-6_3_" d="M10.033,54.519c-0.384,0-0.768-0.147-1.061-0.44c-0.586-0.586-0.586-1.536,0-2.122l4.865-4.868
			c0.585-0.586,1.535-0.586,2.121,0c0.585,0.586,0.585,1.536,0,2.122l-4.865,4.868C10.8,54.372,10.417,54.519,10.033,54.519z"/>
		<path id="path-7_3_" d="M14.086,58.575c-0.383,0-0.767-0.146-1.06-0.44c-0.586-0.586-0.586-1.536,0-2.122l4.865-4.867
			c0.586-0.586,1.535-0.586,2.121,0c0.586,0.586,0.586,1.536,0,2.122l-4.865,4.867C14.854,58.429,14.47,58.575,14.086,58.575z"/>
		<path id="path-8_2_" d="M6.79,51.274c-0.384,0-0.768-0.147-1.061-0.44c-0.586-0.586-0.586-1.536,0-2.122l4.864-4.868
			c0.586-0.586,1.535-0.586,2.121,0c0.586,0.586,0.586,1.536,0,2.122L7.85,50.834C7.557,51.127,7.173,51.274,6.79,51.274z"/>
	</g>
</g>
</svg>
