<svg id="Layer_1" enable-background="new 0 0 480.075 480.075" fill="#0092db" height="512" viewBox="0 0 480.075 480.075" width="512" xmlns="http://www.w3.org/2000/svg"><g><path d="m127.439 189.681c2.655-3.531 1.945-8.547-1.586-11.202-3.532-2.655-8.547-1.945-11.202 1.586-26.015 34.597-53.295 59.161-74.576 83.696-4.513 5.203-.74 13.242 6.04 13.242 2.238 0 4.465-.935 6.047-2.758 20.765-23.942 48.601-49.088 75.277-84.564z"/><path d="m24.444 315.978c1.729-4.066-.165-8.764-4.231-10.493s-8.764.165-10.493 4.231c-15.263 35.89-13.085 83.354 10.335 115.5 1.566 2.15 4.002 3.29 6.472 3.29 6.451 0 10.339-7.387 6.459-12.711-20.026-27.49-21.627-69.05-8.542-99.817z"/><path d="m365.424 180.065c-2.655-3.53-7.669-4.242-11.202-1.586-3.531 2.655-4.241 7.671-1.586 11.202 26.697 35.504 54.387 60.478 75.277 84.564 1.582 1.824 3.808 2.758 6.047 2.758 6.779 0 10.555-8.037 6.04-13.242-21.201-24.443-48.605-49.159-74.576-83.696z"/><path d="m470.355 309.716c-1.729-4.066-6.428-5.96-10.493-4.231-4.066 1.729-5.96 6.427-4.231 10.493 13.04 30.662 11.539 72.25-8.543 99.817-3.877 5.32.003 12.711 6.459 12.711 2.47 0 4.907-1.141 6.472-3.29 23.445-32.18 25.58-79.654 10.336-115.5z"/><path d="m408.881 443.744c-13.085 4.379-26.849 5.267-40.038 2.744 28.618-20.225 41.616-52.807 41.616-87.705 0-57.638-49.363-88.165-78.888-176.583-1.399-4.191-5.931-6.454-10.122-5.054-4.191 1.399-6.454 5.931-5.054 10.122 29.921 89.606 78.064 120.405 78.064 171.515 0 57.331-36.822 83.319-68.354 88.155-4.368.67-7.365 4.753-6.695 9.12.607 3.957 4.015 6.789 7.898 6.789 2.219 0 12.138-1.871 21.575-5.576 20.767 8.239 43.715 8.794 65.075 1.646 4.19-1.402 6.45-5.936 5.048-10.125-1.402-4.191-5.938-6.45-10.125-5.048z"/><path d="m151.428 446.505c-30.36-5.664-65.812-32.037-65.812-87.723 0-67.05 83.259-99.719 98.739-275.652 5.999-68.179 105.369-68.165 111.366 0 .428 4.88 14.587 38.166 27.504 61.369 2.145 3.854 7.015 5.251 10.881 3.099 3.86-2.149 5.248-7.021 3.099-10.881-9.718-17.456-18.35-36.357-25.679-56.182-8.71-85.708-134.248-85.898-142.976 0-7.328 19.826-15.961 38.726-25.679 56.182-2.149 3.86-.762 8.732 3.099 10.881 3.867 2.154 8.736.754 10.881-3.099 1.174-2.109 2.329-4.243 3.472-6.392-25.665 124.526-90.706 154.24-90.706 220.675 0 35.387 13.389 67.773 41.601 87.708-13.184 2.52-26.943 1.63-40.022-2.747-4.188-1.401-8.723.858-10.125 5.048-1.402 4.189.858 8.723 5.048 10.125 21.401 7.162 44.36 6.581 65.106-1.659 5.543 2.177 15.636 5.113 18.746 5.113 3.777 0 7.138-2.687 7.855-6.534.81-4.343-2.055-8.521-6.398-9.331z"/><path d="m338.172 421.003c4.239 1.231 8.681-1.209 9.913-5.452s-1.209-8.681-5.452-9.913c-53.559-15.552-51.844 42.222-102.595 42.222-50.612 0-49.092-57.759-102.595-42.222-4.243 1.232-6.684 5.67-5.452 9.913 1.232 4.244 5.671 6.684 9.913 5.452 41.892-12.161 38.746 42.856 98.134 42.856 58.855.001 56.733-54.877 98.134-42.856z"/><path d="m39.462 75.743 36.78 22.655-4.085 1.467c-4.158 1.494-6.318 6.075-4.824 10.233 1.173 3.265 4.249 5.297 7.529 5.297 1.903 0 1.223.053 22.436-7.562 2.648-.951 4.634-3.256 5.156-6.075.322-1.749.271-.88-2.467-23.237-.537-4.386-4.531-7.502-8.913-6.969-4.386.537-7.506 4.527-6.969 8.913l.527 4.309-36.778-22.654c-3.762-2.317-8.69-1.146-11.007 2.616-2.318 3.762-1.146 8.69 2.615 11.007z"/><path d="m34.692 157.53-4.337-.176c-4.391-.198-8.138 3.254-8.318 7.668s3.253 8.139 7.668 8.318c23.365.946 22.104 1.141 24.302.238 1.417-.582 2.647-1.535 3.539-2.821 1.134-1.632.668-.66 6.622-22.715 1.152-4.266-1.373-8.657-5.638-9.809-4.267-1.151-8.657 1.373-9.809 5.638l-1.131 4.191-12.593-17.155c-2.615-3.562-7.622-4.33-11.183-1.715-3.562 2.614-4.33 7.621-1.715 11.183z"/><path d="m377.492 100.721c.12 2.342 1.32 4.663 3.369 6.111 1.28.907.747.578 21.648 8.09 4.174 1.5 8.747-.684 10.233-4.824 1.494-4.158-.666-8.74-4.824-10.233l-4.085-1.467 36.78-22.655c3.762-2.317 4.933-7.245 2.616-11.007-2.316-3.761-7.245-4.934-11.007-2.616l-36.779 22.654.527-4.309c.537-4.385-2.583-8.376-6.969-8.913-4.382-.531-8.378 2.583-8.913 6.969-2.764 22.668-2.636 21.42-2.596 22.2z"/><path d="m431.354 143.871c-1.152-4.265-5.545-6.79-9.809-5.638-4.266 1.152-6.79 5.544-5.638 9.809 5.995 22.208 5.516 21.732 7.464 23.732 1.113 1.14 2.553 1.904 4.044 2.224 1.53.33-.357.288 22.955-.659 4.415-.179 7.848-3.903 7.668-8.318-.179-4.415-3.927-7.871-8.318-7.668l-4.337.176 12.594-17.156c2.615-3.562 1.847-8.568-1.715-11.183s-8.568-1.847-11.183 1.715l-12.593 17.155z"/></g></svg>