<?xml version="1.0" encoding="iso-8859-1"?>
<!-- Generator: Adobe Illustrator 19.1.0, SVG Export Plug-In . SVG Version: 6.00 Build 0)  -->
<svg version="1.1" fill="#0092db" id="Capa_1" xmlns="http://www.w3.org/2000/svg" xmlns:xlink="http://www.w3.org/1999/xlink" x="0px" y="0px"
	 viewBox="0 0 63.036 63.036" style="enable-background:new 0 0 63.036 63.036;" xml:space="preserve">
<g>
	<g id="group-16svg">
		<path id="path-1_6_" d="M51.518,16.673c0,2.949-2.389,5.339-5.336,5.339h-7.328c-2.947,0-5.336-2.39-5.336-5.339v-0.328
			c0-2.948,2.389-5.339,5.336-5.339h7.328c2.947,0,5.336,2.391,5.336,5.339V16.673z M48.518,16.345c0-1.291-1.046-2.337-2.336-2.337
			h-7.328c-1.29,0-2.336,1.046-2.336,2.337v0.328c0,1.291,1.046,2.338,2.336,2.338h7.328c1.29,0,2.336-1.047,2.336-2.338V16.345z"/>
		<path id="path-2_6_" d="M43.018,21.512c-0.828,0-1.5-0.672-1.5-1.501v-7.004c0-0.828,0.672-1.501,1.5-1.501s1.5,0.673,1.5,1.501
			v7.004C44.518,20.84,43.846,21.512,43.018,21.512z"/>
		<path id="path-3_6_" d="M51.518,32.683c0,2.948-2.389,5.339-5.336,5.339h-7.328c-2.947,0-5.336-2.391-5.336-5.339v-0.329
			c0-2.948,2.389-5.339,5.336-5.339h7.328c2.947,0,5.336,2.391,5.336,5.339V32.683z M48.518,32.354c0-1.29-1.046-2.337-2.336-2.337
			h-7.328c-1.29,0-2.336,1.047-2.336,2.337v0.329c0,1.29,1.046,2.337,2.336,2.337h7.328c1.29,0,2.336-1.047,2.336-2.337V32.354z"/>
		<path id="path-4_6_" d="M43.018,35.52c-0.828,0-1.5-0.672-1.5-1.501v-5.003c0-0.828,0.672-1.5,1.5-1.5s1.5,0.672,1.5,1.5v5.003
			C44.518,34.848,43.846,35.52,43.018,35.52z"/>
		<path id="path-5_6_" d="M51.518,46.691c0,2.948-2.389,5.339-5.336,5.339h-7.328c-2.947,0-5.336-2.391-5.336-5.339v-0.329
			c0-2.948,2.389-5.339,5.336-5.339h7.328c2.947,0,5.336,2.391,5.336,5.339V46.691z M48.518,46.362c0-1.29-1.046-2.337-2.336-2.337
			h-7.328c-1.29,0-2.336,1.047-2.336,2.337v0.329c0,1.291,1.046,2.337,2.336,2.337h7.328c1.29,0,2.336-1.046,2.336-2.337V46.362z"/>
		<path id="path-6_5_" d="M43.018,51.53c-0.828,0-1.5-0.673-1.5-1.501v-7.004c0-0.829,0.672-1.501,1.5-1.501s1.5,0.672,1.5,1.501
			v7.004C44.518,50.857,43.846,51.53,43.018,51.53z"/>
		<path id="path-7_5_" d="M27.518,16.673c0,2.949-2.389,5.339-5.336,5.339h-7.328c-2.947,0-5.336-2.39-5.336-5.339v-0.328
			c0-2.948,2.389-5.339,5.336-5.339h7.328c2.947,0,5.336,2.391,5.336,5.339V16.673z M24.518,16.345c0-1.291-1.046-2.337-2.336-2.337
			h-7.328c-1.29,0-2.336,1.046-2.336,2.337v0.328c0,1.291,1.046,2.338,2.336,2.338h7.328c1.29,0,2.336-1.047,2.336-2.338V16.345z"/>
		<path id="path-8_4_" d="M19.018,21.512c-0.828,0-1.5-0.672-1.5-1.501v-7.004c0-0.828,0.672-1.501,1.5-1.501s1.5,0.673,1.5,1.501
			v7.004C20.518,20.84,19.846,21.512,19.018,21.512z"/>
		<path id="path-9_1_" d="M27.518,32.683c0,2.948-2.389,5.339-5.336,5.339h-7.328c-2.947,0-5.336-2.391-5.336-5.339v-0.329
			c0-2.948,2.389-5.339,5.336-5.339h7.328c2.947,0,5.336,2.391,5.336,5.339V32.683z M24.518,32.354c0-1.29-1.046-2.337-2.336-2.337
			h-7.328c-1.29,0-2.336,1.047-2.336,2.337v0.329c0,1.29,1.046,2.337,2.336,2.337h7.328c1.29,0,2.336-1.047,2.336-2.337V32.354z"/>
		<path id="path-10" d="M19.018,35.52c-0.828,0-1.5-0.672-1.5-1.501v-5.003c0-0.828,0.672-1.5,1.5-1.5s1.5,0.672,1.5,1.5v5.003
			C20.518,34.848,19.846,35.52,19.018,35.52z"/>
		<path id="path-11" d="M27.518,46.691c0,2.948-2.389,5.339-5.336,5.339h-7.328c-2.947,0-5.336-2.391-5.336-5.339v-0.329
			c0-2.948,2.389-5.339,5.336-5.339h7.328c2.947,0,5.336,2.391,5.336,5.339V46.691z M24.518,46.362c0-1.29-1.046-2.337-2.336-2.337
			h-7.328c-1.29,0-2.336,1.047-2.336,2.337v0.329c0,1.291,1.046,2.337,2.336,2.337h7.328c1.29,0,2.336-1.046,2.336-2.337V46.362z"/>
		<path id="path-12" d="M19.018,51.53c-0.828,0-1.5-0.673-1.5-1.501v-7.004c0-0.829,0.672-1.501,1.5-1.501s1.5,0.672,1.5,1.501
			v7.004C20.518,50.857,19.846,51.53,19.018,51.53z"/>
		<path id="path-13" d="M59.518,53.531c0,5.249-4.253,9.505-9.5,9.505h-37c-5.247,0-9.5-4.256-9.5-9.505V9.505
			C3.518,4.256,7.771,0,13.018,0h37c5.247,0,9.5,4.256,9.5,9.505V53.531z M56.518,9.505c0-3.592-2.91-6.504-6.5-6.504h-37
			c-3.59,0-6.5,2.912-6.5,6.504v44.026c0,3.592,2.91,6.503,6.5,6.503h37c3.59,0,6.5-2.911,6.5-6.503V9.505z"/>
	</g>
</g>
</svg>
