<svg id="Layer_1" enable-background="new 0 0 479.998 479.998" fill="#0092db" height="512" viewBox="0 0 479.998 479.998" width="512" xmlns="http://www.w3.org/2000/svg"><g><path d="m67.176 242.25c15.401.142 29.914 4.793 42.482 13.509-1.614 1.442-3.211 2.912-4.778 4.436-5.127 4.987-1.573 13.734 5.579 13.734 2.01 0 4.023-.753 5.578-2.266 36.669-35.668 90.69-46.322 144.504-28.497 4.194 1.389 8.721-.885 10.11-5.079s-.885-8.721-5.079-10.11c-48.828-16.173-101.51-11.989-142.963 17.441-16.79-12.941-36.479-19.17-55.36-19.17-4.384 0-7.958 3.534-7.998 7.926-.042 4.421 3.507 8.036 7.925 8.076z"/><path d="m347.147 354.332c-1.792-4.038-6.52-5.861-10.557-4.068-46.312 20.548-122.764 32.026-198.449 2.616-3.276-1.273-7.004-.257-9.181 2.505-15.012 19.048-37.275 31.263-62.689 34.394-4.385.54-7.502 4.533-6.962 8.918.543 4.403 4.552 7.502 8.918 6.962 12.967-1.597 25.23-5.266 36.418-10.737 29.451 8.048 33.687 11.302 37.364 11.302 3.295 0 6.381-2.052 7.542-5.335 1.473-4.166-.71-8.737-4.875-10.209-7.2-2.546-14.381-4.9-21.666-7.113 5.322-4.093 10.257-8.68 14.729-13.741 70.156 25.608 147.708 20.634 205.338-4.937 4.04-1.792 5.862-6.519 4.07-10.557z"/><path d="m218.679 421.406c-9.617-3.631-21.644-9.39-36.308-15.776-4.051-1.764-8.764.089-10.529 4.14-1.764 4.051.089 8.765 4.14 10.529 14.925 6.501 26.761 12.194 37.046 16.076 4.097 1.549 8.737-.492 10.31-4.659 1.56-4.134-.526-8.75-4.659-10.31z"/><path d="m375.444 364.026c3.637 0 6.928-2.497 7.785-6.191 1.484-6.387 2.554-13.149 3.24-20.118 12.055-10.88 20.175-22.85 23.556-34.773 16.788-59.192 7.674-100.494-1.141-140.435-10.499-47.571-10.874-60.697-10.544-90.506.252-22.719.392-35.234-15.152-49.153-12.612-11.294-36.978-20.602-59.254-22.637-17.771-1.624-34.663 6.058-48.865 22.21-10.002 11.378-4.94 26.725.256 37.498-2.563 1.86-4.723 4.092-6.348 6.688-6.686 10.681-3.825 29.227 2.925 39.192 7.548 11.143 27.862 14.72 52.286 9.761-5.146 42.51-44.319 80.042-30.565 166.514.626 3.938 4.026 6.745 7.891 6.745 4.947 0 8.68-4.417 7.91-9.257-14.21-89.358 32.053-120.918 31.322-174.471-.072-5.28-5.166-9.057-10.246-7.568-26.465 7.745-42.597 3.369-45.351-.696-3.858-5.696-5.272-17.475-2.609-21.729 2.492-3.982 11.268-7.017 22.625-4.795 2.782.544 5.639-.423 7.519-2.54l11.392-12.831c2.934-3.304 2.633-8.36-.671-11.294-3.304-2.933-8.36-2.633-11.294.671l-8.5 9.574c-4.664-.532-9.14-.449-13.285.19-3.877-7.928-6.988-16.823-3.239-21.087 10.842-12.331 22.752-17.994 35.394-16.841 18.562 1.696 40.074 9.702 50.036 18.622 12.724 11.393 9.325 18.995 9.794 54.651 1.003 76.866 37.454 120.55 12.324 209.158-2.742 9.666-10.006 19.737-21.006 29.123-4.477 3.812-1.52 7.299-5.983 26.513-1.165 5.008 2.638 9.812 7.798 9.812z"/><path d="m293.173 427.073c-12.368 2.444-25.159 2.894-37.623 1.884-4.397-.347-8.263 2.925-8.619 7.329s2.925 8.263 7.328 8.62c13.906 1.125 28.162.602 42.016-2.136 4.335-.856 7.154-5.065 6.298-9.399-.858-4.335-5.069-7.152-9.4-6.298z"/><path d="m364.492 386.024c-3.688-2.436-8.649-1.418-11.084 2.268-6.805 10.304-15.523 18.861-25.915 25.434-6.775 4.285-3.68 14.762 4.284 14.762 1.462 0 2.941-.4 4.269-1.24 12.319-7.792 22.653-17.933 30.714-30.14 2.435-3.687 1.42-8.65-2.268-11.084z"/><path d="m419.28 467.378-17.095-24.172 5.059.647c4.39.557 8.391-2.539 8.951-6.92.561-4.382-2.538-8.39-6.92-8.951-24.703-3.162-23.87-3.219-25.664-2.87-3.113.604-5.656 3.018-6.311 6.257l-4.437 21.862c-.879 4.33 1.919 8.552 6.249 9.431 4.346.881 8.555-1.935 9.431-6.25l.755-3.719 16.919 23.923c2.555 3.614 7.551 4.459 11.15 1.913 3.608-2.551 4.464-7.544 1.913-11.151z"/><path d="m119.717 431.369c-.673-3.299-3.339-5.831-6.686-6.32-1.571-.229-.504-.239-25.289 2.933-4.383.561-7.481 4.568-6.92 8.951.562 4.383 4.572 7.481 8.951 6.92l5.059-.647-17.095 24.171c-2.551 3.607-1.695 8.6 1.912 11.151 3.615 2.556 8.605 1.688 11.151-1.912l16.918-23.922.754 3.718c.879 4.332 5.103 7.128 9.431 6.25 4.33-.879 7.128-5.101 6.25-9.431z"/></g></svg>