<?xml version="1.0" encoding="iso-8859-1"?>
<!-- Generator: Adobe Illustrator 19.1.0, SVG Export Plug-In . SVG Version: 6.00 Build 0)  -->
<svg version="1.1" fill="#0092db" id="Capa_1" xmlns="http://www.w3.org/2000/svg" xmlns:xlink="http://www.w3.org/1999/xlink" x="0px" y="0px"
	 viewBox="0 0 63.003 63.003" style="enable-background:new 0 0 63.003 63.003;" xml:space="preserve">
<g>
	<g id="group-22svg">
		<path id="path-1_13_" d="M25.481,49.323c-0.926,0-1.796-0.361-2.451-1.015l-8.34-8.346c-0.655-0.655-1.015-1.525-1.015-2.452
			c0-0.927,0.36-1.797,1.015-2.452L37.625,12.11c1.309-1.31,3.593-1.308,4.902,0l8.339,8.345c0.656,0.654,1.016,1.525,1.016,2.452
			s-0.36,1.797-1.017,2.453L27.931,48.307C27.277,48.961,26.406,49.323,25.481,49.323z M40.075,14.097
			c-0.071,0-0.21,0.017-0.329,0.135L16.811,37.181c-0.118,0.119-0.136,0.258-0.136,0.33c0,0.072,0.018,0.211,0.136,0.33l8.34,8.344
			c0.226,0.225,0.432,0.225,0.659,0l22.935-22.948c0.114-0.114,0.137-0.243,0.137-0.33c0-0.088-0.023-0.217-0.136-0.329
			l-8.341-8.346C40.286,14.114,40.148,14.097,40.075,14.097z"/>
		<path id="path-2_13_" d="M56.756,18.029c-0.926,0-1.796-0.361-2.45-1.016l-8.34-8.345c-0.655-0.655-1.016-1.526-1.016-2.452
			s0.361-1.797,1.017-2.453l2.778-2.781c1.311-1.311,3.593-1.309,4.902,0l8.341,8.345c1.351,1.352,1.351,3.552,0,4.904l-2.781,2.782
			C58.553,17.668,57.683,18.029,56.756,18.029z M51.197,2.969c-0.088,0-0.217,0.024-0.332,0.138l-2.778,2.781
			c-0.113,0.113-0.137,0.241-0.137,0.329c0,0.088,0.024,0.216,0.136,0.328l8.341,8.347c0.119,0.118,0.258,0.137,0.329,0.137
			c0.072,0,0.211-0.019,0.33-0.137l2.78-2.782c0.182-0.182,0.182-0.478,0-0.66l-8.34-8.344C51.412,2.993,51.284,2.969,51.197,2.969z
			"/>
		<path id="path-3_11_" d="M48.416,21.625c-0.384,0-0.767-0.146-1.06-0.439l-5.561-5.564c-0.281-0.282-0.439-0.664-0.439-1.061
			c0-0.398,0.158-0.78,0.439-1.062l5.561-5.562c0.586-0.587,1.535-0.587,2.121,0l5.56,5.562c0.282,0.282,0.44,0.664,0.44,1.062
			c0,0.397-0.158,0.779-0.44,1.061l-5.56,5.564C49.184,21.479,48.8,21.625,48.416,21.625z M44.977,14.562l3.439,3.441l3.44-3.441
			l-3.44-3.441L44.977,14.562z"/>
		<path id="path-4_9_" d="M18.53,49.323c-0.925,0-1.795-0.361-2.45-1.015l-1.39-1.392c-0.655-0.654-1.015-1.525-1.015-2.451
			c0-0.928,0.36-1.798,1.015-2.453l2.085-2.086c0.586-0.586,1.535-0.586,2.121,0l4.17,4.172c0.586,0.587,0.586,1.536,0,2.123
			l-2.085,2.086C20.326,48.961,19.456,49.323,18.53,49.323z M17.835,43.11l-1.024,1.025c-0.118,0.12-0.136,0.258-0.136,0.331
			c0,0.071,0.018,0.21,0.136,0.329l1.389,1.39c0.227,0.225,0.433,0.225,0.66,0l1.024-1.025L17.835,43.11z"/>
		<path id="path-5_8_" d="M1.502,63.003c-0.384,0-0.767-0.147-1.06-0.44c-0.586-0.586-0.586-1.536,0-2.122l14.595-14.604
			c0.586-0.587,1.535-0.587,2.121,0c0.586,0.586,0.586,1.536,0,2.122L2.563,62.563C2.27,62.856,1.886,63.003,1.502,63.003z"/>
	</g>
</g>
</svg>
