<?xml version="1.0" encoding="iso-8859-1"?>
<!-- Generator: Adobe Illustrator 19.1.0, SVG Export Plug-In . SVG Version: 6.00 Build 0)  -->
<svg version="1.1" fill="#0092db" id="Capa_1" xmlns="http://www.w3.org/2000/svg" xmlns:xlink="http://www.w3.org/1999/xlink" x="0px" y="0px"
	 viewBox="0 0 63.036 63.036" style="enable-background:new 0 0 63.036 63.036;" xml:space="preserve">
<g>
	<g id="group-25svg">
		<path id="path-1_16_" d="M42.742,56.032H19.085c-5.38,0-8.567-3.395-8.567-8.448v-28.89c0-5.257,3.818-9.374,8.963-9.374
			c0.828,0,1.393,0.672,1.393,1.5c0,0.829-0.511,1.501-1.339,1.501c-3.464,0-6.017,2.8-6.017,6.373v28.89
			c0,3.359,1.87,5.446,5.567,5.446h23.657c3.16,0,6.776-1.684,6.776-5.446v-28.89c0-3.514-3.066-6.373-6.573-6.373
			c-0.828,0-1.606-0.672-1.606-1.501c0-0.828,0.831-1.5,1.659-1.5c5.162,0,9.52,4.205,9.52,9.374v28.89
			C52.518,52.559,48.247,56.032,42.742,56.032z"/>
		<path id="path-2_16_" d="M48.007,63.036H13.821c-4.977,0-8.303-4.078-8.303-9.486V12.729c0-5.454,3.407-9.727,8.303-9.727h4.27
			c0.828,0,1.5,0.672,1.5,1.5c0,0.829-0.672,1.501-1.5,1.501h-4.27c-3.722,0-5.303,3.465-5.303,6.726V53.55
			c0,3.223,1.541,6.485,5.303,6.485h34.186c3.411,0,6.511-2.849,6.511-6.485V12.729c0-3.708-3.156-6.726-6.511-6.726h-4.916
			c-0.828,0-1.5-0.672-1.5-1.501c0-0.828,0.672-1.5,1.5-1.5h4.916c5.009,0,9.511,4.363,9.511,9.727V53.55
			C57.518,58.87,53.101,63.036,48.007,63.036z"/>
		<path id="path-3_14_" d="M27.091,28.016h-11c-0.828,0-1.5-0.672-1.5-1.501c0-0.828,0.672-1.501,1.5-1.501h11
			c0.828,0,1.5,0.673,1.5,1.501C28.591,27.344,27.919,28.016,27.091,28.016z"/>
		<path id="path-4_12_" d="M27.091,32.018h-11c-0.828,0-1.5-0.672-1.5-1.501c0-0.828,0.672-1.5,1.5-1.5h11
			c0.828,0,1.5,0.672,1.5,1.5C28.591,31.346,27.919,32.018,27.091,32.018z"/>
		<path id="path-5_11_" d="M27.091,45.026h-11c-0.828,0-1.5-0.672-1.5-1.501c0-0.829,0.672-1.501,1.5-1.501h11
			c0.828,0,1.5,0.672,1.5,1.501C28.591,44.354,27.919,45.026,27.091,45.026z"/>
		<path id="path-6_8_" d="M27.091,49.028h-11c-0.828,0-1.5-0.672-1.5-1.501c0-0.828,0.672-1.501,1.5-1.501h11
			c0.828,0,1.5,0.673,1.5,1.501C28.591,48.356,27.919,49.028,27.091,49.028z"/>
		<path id="path-7_7_" d="M41.235,16.009H20.593c-0.742,0-1.372-0.542-1.483-1.276L17.142,1.725
			c-0.065-0.432,0.062-0.871,0.346-1.203C17.773,0.19,18.188,0,18.625,0h24.577c0.436,0,0.852,0.19,1.137,0.522
			c0.284,0.332,0.411,0.771,0.346,1.203l-1.967,13.008C42.607,15.467,41.977,16.009,41.235,16.009z M21.883,13.007h18.062
			l1.512-10.005H20.37L21.883,13.007z"/>
	</g>
</g>
</svg>
