<?xml version="1.0" encoding="iso-8859-1"?>
<!-- Generator: Adobe Illustrator 19.1.0, SVG Export Plug-In . SVG Version: 6.00 Build 0)  -->
<svg version="1.1" fill="#0092db" id="Capa_1" xmlns="http://www.w3.org/2000/svg" xmlns:xlink="http://www.w3.org/1999/xlink" x="0px" y="0px"
	 viewBox="0 0 63 63" style="enable-background:new 0 0 63 63;" xml:space="preserve">
<g>
	<g id="group-31svg">
		<path id="path-1_23_" d="M63,54.513c0,3.04-2.463,5.504-5.5,5.504h-52c-3.037,0-5.5-2.464-5.5-5.504V15.491
			c0-3.04,2.463-5.503,5.5-5.503h52c3.037,0,5.5,2.463,5.5,5.503V54.513z M60,15.491c0-1.382-1.119-2.502-2.5-2.502h-52
			c-1.381,0-2.5,1.12-2.5,2.502v39.022c0,1.382,1.119,2.502,2.5,2.502h52c1.381,0,2.5-1.12,2.5-2.502V15.491z"/>
		<path id="path-2_23_" d="M41.5,12.489c-0.828,0-1.5-0.672-1.5-1.501V5.985H22v5.003c0,0.829-0.672,1.501-1.5,1.501
			S19,11.817,19,10.988V4.484c0-0.828,0.245-1.5,1.073-1.5h21c0.828,0,1.927,0.672,1.927,1.5v6.504
			C43,11.817,42.328,12.489,41.5,12.489z"/>
		<path id="path-3_19_" d="M31.5,30.499c-0.828,0-1.5-0.672-1.5-1.5V16.992c0-0.829,0.672-1.501,1.5-1.501s1.5,0.672,1.5,1.501
			v12.007C33,29.827,32.328,30.499,31.5,30.499z"/>
		<path id="path-4_16_" d="M36.573,24.996h-11c-0.828,0-1.5-0.672-1.5-1.501c0-0.828,0.672-1.5,1.5-1.5h11
			c0.828,0,1.5,0.672,1.5,1.5C38.073,24.324,37.401,24.996,36.573,24.996z"/>
		<path id="path-5_14_" d="M54,40.504c0,0.829-0.672,1.501-1.5,1.501h-8c-0.828,0-1.5-0.672-1.5-1.501v-5.003
			C43,34.673,43.672,34,44.5,34h8c0.828,0,1.5,0.672,1.5,1.501V40.504z M46,39.003h5v-2.001h-5V39.003z"/>
		<path id="path-6_10_" d="M20,40.504c0,0.829-0.672,1.501-1.5,1.501h-8c-0.828,0-1.5-0.672-1.5-1.501v-5.003
			C9,34.673,9.672,34,10.5,34h8c0.828,0,1.5,0.672,1.5,1.501V40.504z M12,39.003h5v-2.001h-5V39.003z"/>
		<path id="path-7_8_" d="M60.573,36.002h-59c-0.828,0-1.5-0.673-1.5-1.501c0-0.829,0.672-1.501,1.5-1.501h59
			c0.828,0,1.5,0.672,1.5,1.501C62.073,35.329,61.401,36.002,60.573,36.002z"/>
	</g>
</g>
</svg>
