<?xml version="1.0" encoding="iso-8859-1"?>
<!-- Generator: Adobe Illustrator 19.1.0, SVG Export Plug-In . SVG Version: 6.00 Build 0)  -->
<svg version="1.1" fill="#0092db" id="Capa_1" xmlns="http://www.w3.org/2000/svg" xmlns:xlink="http://www.w3.org/1999/xlink" x="0px" y="0px"
	 viewBox="0 0 63.036 63.036" style="enable-background:new 0 0 63.036 63.036;" xml:space="preserve">
<g>
	<g id="group-4svg">
		<path id="path-1_24_" d="M58.853,33.076h-22c-0.828,0-1.073-0.673-1.073-1.501v-19.02C35.78,5.632,41.387,0,48.28,0
			c6.892,0,12.5,5.632,12.5,12.555v19.02C60.78,32.403,59.681,33.076,58.853,33.076z M38.78,30.074h19V12.555
			c0-5.268-4.262-9.553-9.5-9.553c-5.239,0-9.5,4.285-9.5,9.553V30.074z"/>
		<path id="path-2_24_" d="M19.021,53.633c-0.384,0-0.768-0.146-1.061-0.439L4.467,39.693c-4.891-4.896-4.891-12.86,0-17.756
			c2.37-2.371,5.521-3.677,8.873-3.677s6.502,1.306,8.872,3.677l13.494,13.501c0.585,0.587,0.585,1.536,0,2.123L20.081,53.194
			C19.788,53.487,19.405,53.633,19.021,53.633z M13.34,21.262c-2.551,0-4.948,0.994-6.752,2.798c-3.721,3.725-3.721,9.786,0,13.51
			l12.433,12.44L32.524,36.5L20.091,24.06C18.287,22.256,15.89,21.262,13.34,21.262z"/>
		<path id="path-3_20_" d="M46.372,50.61c-3.008,0-5.456-2.448-5.456-5.458c0-3.01,2.448-5.458,5.456-5.458s5.456,2.448,5.456,5.458
			C51.828,48.162,49.38,50.61,46.372,50.61z M46.372,42.696c-1.354,0-2.456,1.102-2.456,2.456s1.102,2.457,2.456,2.457
			s2.456-1.103,2.456-2.457S47.726,42.696,46.372,42.696z"/>
		<path id="path-4_17_" d="M33.316,60.022c-2.657,0-4.818-2.162-4.818-4.821c0-2.658,2.161-4.82,4.818-4.82
			c2.656,0,4.817,2.162,4.817,4.82C38.133,57.86,35.972,60.022,33.316,60.022z M33.316,53.382c-1.003,0-1.819,0.816-1.819,1.819
			c0,1.003,0.816,1.819,1.819,1.819c1.002,0,1.817-0.816,1.817-1.819C35.133,54.198,34.318,53.382,33.316,53.382z"/>
		<path id="path-5_15_" d="M57.419,63.036c-2.657,0-4.818-2.162-4.818-4.821c0-2.658,2.161-4.82,4.818-4.82
			c2.657,0,4.818,2.162,4.818,4.82C62.237,60.874,60.076,63.036,57.419,63.036z M57.419,56.397c-1.003,0-1.818,0.816-1.818,1.818
			c0,1.004,0.815,1.82,1.818,1.82c1.002,0,1.818-0.816,1.818-1.82C59.237,57.213,58.421,56.397,57.419,56.397z"/>
		<path id="path-6_11_" d="M56.28,44.582c-0.828,0-1.5-0.672-1.5-1.501v-6.003c0-0.829,0.672-1.501,1.5-1.501
			c0.828,0,1.5,0.672,1.5,1.501v6.003C57.78,43.91,57.108,44.582,56.28,44.582z"/>
		<path id="path-7_9_" d="M42.28,59.591c-0.828,0-1.5-0.672-1.5-1.501v-6.003c0-0.829,0.672-1.501,1.5-1.501
			c0.828,0,1.5,0.672,1.5,1.501v6.003C43.78,58.919,43.108,59.591,42.28,59.591z"/>
		<path id="path-8_6_" d="M38.28,44.582c-0.828,0-1.5-0.672-1.5-1.501v-6.003c0-0.829,0.672-1.501,1.5-1.501
			c0.828,0,1.5,0.672,1.5,1.501v6.003C39.78,43.91,39.108,44.582,38.28,44.582z"/>
	</g>
</g>
</svg>
