<svg id="_x31__px" fill="#0092db" height="512" viewBox="0 0 24 24" width="512" xmlns="http://www.w3.org/2000/svg"><path d="m9.711 20h-3.422c-1.274 0-2.343-.956-2.484-2.223l-1.796-16.115c-.006-.054-.009-.108-.009-.162 0-.827.673-1.5 1.5-1.5h9c.827 0 1.5.673 1.5 1.5 0 .054-.003.108-.009.162l-1.796 16.115c-.141 1.267-1.21 2.223-2.484 2.223zm-6.211-19c-.275 0-.5.224-.5.5l1.799 16.167c.085.76.725 1.333 1.49 1.333h3.422c.765 0 1.405-.573 1.49-1.334l1.796-16.115c.003-.327-.222-.551-.497-.551z"/><path d="m8 24c-1.103 0-2-.897-2-2v-2.5c0-.276.224-.5.5-.5s.5.224.5.5v2.5c0 .551.448 1 1 1s1-.449 1-1v-2.5c0-.276.224-.5.5-.5s.5.224.5.5v2.5c0 1.103-.897 2-2 2z"/><path d="m12.75 8h-9.5c-.276 0-.5-.224-.5-.5s.224-.5.5-.5h9.5c.276 0 .5.224.5.5s-.224.5-.5.5z"/><path d="m12.25 12h-8.5c-.276 0-.5-.224-.5-.5s.224-.5.5-.5h8.5c.276 0 .5.224.5.5s-.224.5-.5.5z"/><path d="m16.5 24c-.276 0-.5-.224-.5-.5v-23c0-.276.224-.5.5-.5h4c.827 0 1.5.673 1.5 1.5v7c0 .827-.673 1.5-1.5 1.5h-3.5v13.5c0 .276-.224.5-.5.5zm.5-15h3.5c.275 0 .5-.224.5-.5v-7c0-.276-.225-.5-.5-.5h-3.5z"/><path d="m21.5 4h-2c-.276 0-.5-.224-.5-.5s.224-.5.5-.5h2c.276 0 .5.224.5.5s-.224.5-.5.5z"/><path d="m21.5 7h-2c-.276 0-.5-.224-.5-.5s.224-.5.5-.5h2c.276 0 .5.224.5.5s-.224.5-.5.5z"/></svg>