<?xml version="1.0" encoding="iso-8859-1"?>
<!-- Generator: Adobe Illustrator 19.1.0, SVG Export Plug-In . SVG Version: 6.00 Build 0)  -->
<svg version="1.1" fill="#0092db" id="Capa_1" xmlns="http://www.w3.org/2000/svg" xmlns:xlink="http://www.w3.org/1999/xlink" x="0px" y="0px"
	 viewBox="0 0 63.037 63.037" style="enable-background:new 0 0 63.037 63.037;" xml:space="preserve">
<g>
	<g id="group-9svg">
		<path id="path-1_29_" d="M40.091,23.013h-18c-0.828,0-1.073-0.672-1.073-1.501V10.026c0-0.617,0.164-1.171,0.738-1.397
			c5.551-2.177,3.891-6.411,3.822-6.59c-0.177-0.461-0.169-0.981,0.111-1.388C25.969,0.243,26.378,0,26.872,0h8.236
			c0.486,0,0.941,0.236,1.223,0.632c0.281,0.396,0.353,0.904,0.193,1.363c-0.147,0.445-1.095,4.506,4.329,6.634
			c0.574,0.226,1.166,0.78,1.166,1.397v11.486C42.019,22.341,40.919,23.013,40.091,23.013z M24.018,20.012h15V11.01
			c-5-2.081-5.814-5.48-5.696-8.008h-4.612c0.188,2.535-0.692,5.927-4.692,8.008V20.012z"/>
		<path id="path-2_29_" d="M47.019,61.536c0,0.829-0.672,1.501-1.5,1.501h-28c-0.828,0-1.5-0.672-1.5-1.501v-34.02
			c0-0.829,0.672-1.501,1.5-1.501h28c0.828,0,1.5,0.672,1.5,1.501V61.536z M19.018,60.035h25V29.017h-25V60.035z"/>
		<path id="path-3_25_" d="M39.019,27.516c0,0.829-0.672,1.501-1.5,1.501h-11c-0.828,0-1.5-0.672-1.5-1.501v-6.004
			c0-0.829,0.672-1.5,1.5-1.5h11c0.828,0,1.5,0.671,1.5,1.5V27.516z M28.018,26.015h8v-3.002h-8V26.015z"/>
		<path id="path-4_22_" d="M47.019,51.53c0,0.829-0.672,1.501-1.5,1.501h-13c-0.828,0-1.5-0.672-1.5-1.501V36.521
			c0-0.829,0.672-1.501,1.5-1.501h13c0.828,0,1.5,0.672,1.5,1.501V51.53z M34.019,50.029h10V38.022h-10V50.029z"/>
		<path id="path-5_19_" d="M34.519,22.513c-0.828,0-1.5-0.672-1.5-1.501V3.002c0-0.829,0.672-1.501,1.5-1.501s1.5,0.672,1.5,1.501
			v18.01C36.019,21.841,35.347,22.513,34.519,22.513z"/>
		<path id="path-6_15_" d="M28.518,21.512c-0.828,0-1.5-0.672-1.5-1.5V3.002c0-0.829,0.672-1.501,1.5-1.501
			c0.828,0,1.5,0.672,1.5,1.501v17.01C30.018,20.84,29.347,21.512,28.518,21.512z"/>
	</g>
</g>
</svg>
