<?xml version="1.0" encoding="UTF-8"?>
<svg xmlns="http://www.w3.org/2000/svg" version="1.1" viewBox="0 0 24 24">
  <defs>
    <style>
      .cls-1 {
        isolation: isolate;
        opacity: .4;
      }

      .cls-1, .cls-2 {
        fill: #0092db;
      }
    </style>
  </defs>
  <!-- Generator: Adobe Illustrator 28.7.0, SVG Export Plug-In . SVG Version: 1.2.0 Build 65)  -->
  <g>
    <g id="Layer_1">
      <path class="cls-1" d="M13.8,1.7c-1.1-.5-2.4-.5-3.6,0l-6.5,3c-1.5.7-2.5,2.2-2.5,3.9v7c0,1.7,1,3.2,2.5,3.9l6.5,3c1.1.5,2.4.5,3.5,0l6.5-3c1.5-.7,2.5-2.2,2.5-3.9v-7c0-1.7-1-3.2-2.5-3.9l-6.5-3Z"/>
      <path class="cls-2" d="M17.8,8.4l4.4-2.1c.3.4.5.9.6,1.4l-9.9,4.8v10.2c-.5,0-1,0-1.5,0v-10.2S1.3,7.8,1.3,7.8c0-.5.3-1,.5-1.4l10.2,4.8,4-1.9L5.3,4l1.8-.8,10.8,5.2Z"/>
      <path class="cls-2" d="M7.3,15.9c-.4-.2-.8,0-1,.4-.2.4,0,.8.4,1l2,.9c.4.2.8,0,1-.4.2-.4,0-.8-.4-1l-2-.9Z"/>
    </g>
  </g>
</svg>