<svg xmlns="http://www.w3.org/2000/svg" id="Layer_1" viewBox="0 0 53 53"><g><g><g><g><g><g><g><g><g><g><g><g><g><g><g><g><g><path d="m50.4948235 35.6575737v11.4000244c0 1.75-1.4199829 3.1699829-3.1799927 3.1699829h-39.25c-1.4599614 0-2.6300054-1.2299805-2.559998-2.6900024l1.6799927-33.1900024c.0500488-.9299927.8099976-1.6499634 1.730042-1.6499634h28.9699707c.9299927 0 1.6900024.7199707 1.7299805 1.6499634l.9500122 18.7000122h7.3099976c1.450012-.0000001 2.619995 1.1699829 2.619995 2.6099853z"></path></g><g><path d="m47.3149414 50.7273598h-39.25c-.8427734 0-1.6289063-.3374023-2.2138672-.9506836-.5859375-.6142578-.8867188-1.4179688-.8457031-2.2631836l1.6806641-33.1914063c.0634766-1.1918945 1.0429688-2.1245117 2.2285156-2.1245117h28.9707031c1.1982422 0 2.1777344.9350586 2.2294922 2.128418l.9257813 18.2216797h6.8339844c1.7207031 0 3.1201172 1.3950195 3.1201172 3.1098633v11.3999023c-.0000001 2.0234375-1.6503907 3.6699219-3.6796876 3.6699219zm-38.4003916-37.5297842c-.6542969 0-1.1953125.5170898-1.2304688 1.1767578l-1.680664 33.1884756c-.0263672.5678711.1757813 1.109375.5712891 1.5239258.3945313.4130859.9228516.640625 1.4902344.640625h39.25c1.4775391 0 2.6796875-1.1977539 2.6796875-2.6699219v-11.3999023c0-1.1635742-.9511719-2.1098633-2.1201172-2.1098633h-7.3095703c-.2666016 0-.4853516-.2084961-.4990234-.4746094l-.9501953-18.7001953c-.0283203-.6606445-.5693359-1.175293-1.2304688-1.175293h-28.9707032z"></path></g></g></g></g></g></g></g></g></g></g></g></g></g></g></g></g><g><g><g><g><g><g><g><g><g><g><g><g><g><g><path d="m38.294384 47.5358086c.075058 1.4621773-1.0920906 2.6888428-2.5568428 2.6888428h-30.6719403c-1.4647512 0-2.6293118-1.2266655-2.5568585-2.6888428l1.6795526-33.1925659c.0465803-.9212961.8048525-1.6433172 1.7261486-1.6433172h28.9742546c.9212952 0 1.6821442.7220211 1.7287254 1.6433172z" fill="#fff"></path></g><g><path d="m35.737793 50.7244301h-30.671876c-.8457031 0-1.6328125-.3374023-2.2167969-.9501953-.5839844-.6137695-.8818359-1.4169922-.8398438-2.2631836l1.6796875-33.1933594c.0605469-1.1875 1.0380859-2.1176758 2.2255859-2.1176758h28.9746094c1.1884766 0 2.1669922.9301758 2.2275391 2.1176758l1.6767578 33.1928711v-.0004883c.0439453.8447266-.2529297 1.6479492-.8359375 2.2617188-.5839833.6142578-1.3720693.9526367-2.2197255.9526367zm-29.8232432-37.5244131c-.6552734 0-1.1943359.5131836-1.2275391 1.168457l-1.6796874 33.1928701c-.0273438.5688477.1728516 1.1103516.5664063 1.5234375.3925781.4125977.9228516.6396484 1.4921875.6396484h30.671875c.5703125 0 1.1015625-.2280273 1.4941406-.6416016.3925781-.4130859.5927734-.953125.5634766-1.5209961 0-.0004883 0-.0004883 0-.0004883l-1.676757-33.19287c-.0332031-.6552734-.5732422-1.168457-1.2294922-1.168457z"></path></g></g></g></g></g></g></g></g></g></g></g></g></g></g><g><g><path d="m47.4915237 35.6586952v11.3973427c0 1.7469673-1.4216499 3.1686134-3.1746445 3.1686134h-19.5959625c-1.4337082 0-2.6023598-1.1686516-2.6023598-2.608387v-11.9575691c0-1.4397392 1.1746807-2.6144218 2.6083889-2.6144218h20.150156c1.4457704 0 2.6144219 1.1686516 2.6144219 2.6144218z" fill="#5ae4a7"></path></g><g><path d="m44.3168945 50.7244301h-19.595705c-1.7109375 0-3.1025391-1.3945313-3.1025391-3.1083984v-11.9575196c0-1.7172852 1.3945313-3.1142578 3.1083984-3.1142578h20.1503925c1.7167969 0 3.1142578 1.3969727 3.1142578 3.1142578v11.3974609c.0000001 2.0229493-1.6484374 3.6684571-3.6748046 3.6684571zm-19.5898456-17.1801758c-1.1621094 0-2.1083984.9482422-2.1083984 2.1142578v11.9575195c0 1.1625977.9433594 2.1083984 2.1025391 2.1083984h19.595705c1.4746094 0 2.6748047-1.1972656 2.6748047-2.668457v-11.3974609c0-1.1660156-.9482422-2.1142578-2.1142578-2.1142578z"></path></g></g><g><g><path d="m22.119 36.621h25.373v3.665h-25.373z" fill="#fff"></path></g><g><path d="m47.4916992 40.784977h-25.3730488c-.2763672 0-.5-.2236328-.5-.5v-3.6645508c0-.2763672.2236328-.5.5-.5h25.3730488c.2763672 0 .5.2236328.5.5v3.6645508c0 .2763671-.2236328.5-.5.5zm-24.8730488-1h24.3730488v-2.6645508h-24.3730488z"></path></g></g><g><g><g><path d="m31.1983185 44.7402v1.8701668c0 .4556732-.367218.8296967-.8296547.8296967h-4.4340153c-.4556293 0-.8296967-.3740234-.8296967-.8296967v-1.8701668c0-.4556313.3740673-.8296585.8296967-.8296585h4.4340153c.4624367 0 .8296547.3740273.8296547.8296585z" fill="#283e42"></path></g><g><path d="m30.3686504 47.9402504h-4.4335938c-.7333984 0-1.3300781-.5966797-1.3300781-1.3300781v-1.8701172c0-.7329102.5966797-1.3295898 1.3300781-1.3295898h4.4335938c.7333984 0 1.3300781.5966797 1.3300781 1.3295898v1.8701172c.0000001.7333984-.5966796 1.3300781-1.3300781 1.3300781zm-4.4335937-3.5297852c-.1787109 0-.3300781.1508789-.3300781.3295898v1.8701172c0 .1787109.1513672.3300781.3300781.3300781h4.4335938c.1816406 0 .3300781-.1479492.3300781-.3300781v-1.8701172c0-.1816406-.1484375-.3295898-.3300781-.3295898z"></path></g></g><g><g><g><path d="m44.5053711 45.2151527h-1.5058594c-.2763672 0-.5-.2236328-.5-.5s.2236328-.5.5-.5h1.5058594c.2763672 0 .5.2236328.5.5s-.2236328.5-.5.5z"></path></g></g><g><g><path d="m40.9897461 45.2151527h-2.0195313c-.2763672 0-.5-.2236328-.5-.5s.2236328-.5.5-.5h2.0195313c.2763672 0 .5.2236328.5.5s-.2236328.5-.5.5z"></path></g></g><g><g><path d="m42.5092773 47.1355629h-3.5390625c-.2763672 0-.5-.2236328-.5-.5s.2236328-.5.5-.5h3.5390625c.2763672 0 .5.2236328.5.5s-.2236328.5-.5.5z"></path></g></g></g></g><g><g><path d="m10.8491201 46.7249184h-4.2685546c-.2763672 0-.5-.2236328-.5-.5s.2236328-.5.5-.5h4.2685547c.2763672 0 .5.2236328.5.5s-.2236329.5-.5000001.5z"></path></g></g><g><g><path d="m13.9741201 43.6946449h-7.3935546c-.2763672 0-.5-.2236328-.5-.5s.2236328-.5.5-.5h7.3935547c.2763672 0 .5.2236328.5.5s-.2236329.5-.5000001.5z"></path></g></g><g><g><g><path d="m30.4497623 12.7782888v6.0123262c0 .689497-.5610237 1.2536583-1.2536583 1.2536583-.6926517 0-1.2536564-.5641613-1.2536564-1.2536583v-5.84307c0-4.1934872-3.4318924-7.7350669-7.6253796-7.6661248-4.0743885.0689421-7.3683767 3.4068141-7.3683767 7.4968686v6.0123262c0 .689497-.5610046 1.2536583-1.2536583 1.2536583-.3447475 0-.6581621-.1410408-.883831-.3698273-.2287865-.225668-.3698263-.5390816-.3698263-.883831v-5.8148737c0-5.5975776 4.582118-10.2956572 10.1765575-10.2016363 5.4377538.0940202 9.8318291 4.5445095 9.8318291 10.0041838z" fill="#283e42"></path></g><g><path d="m29.1957989 20.5442543c-.9667969 0-1.7529297-.7866211-1.7529297-1.753418v-5.8432608c0-1.918457-.7919922-3.7983398-2.1728516-5.1567388-1.3203125-1.2988281-3.0332031-2.0102539-4.8330078-2.0102539-.0371094 0-.0742188.0004883-.1123047.0009766-3.7910156.0639648-6.8759756 3.2026372-6.8759756 6.9965825v6.0126944c0 .9667969-.7871094 1.753418-1.7539063 1.753418-.4697266 0-.9091797-.184082-1.2392578-.5185547-.3300781-.3261719-.5146484-.7666016-.5146484-1.2348633v-5.8149405c0-2.8632813 1.1796875-5.6650395 3.2363281-7.6875005 2.0234375-1.9897461 4.6269522-3.0629883 7.4492178-3.0141602 5.6923828.0981445 10.3232422 4.8100586 10.3232422 10.5039063v6.0126944c0 .9667974-.7871094 1.7534185-1.7539062 1.7534185zm-8.7578125-15.7636714c2.0634766 0 4.0244141.8129883 5.5332031 2.2973633 1.5703125 1.5454106 2.4716797 3.6845708 2.4716797 5.8696294v5.8432608c0 .4155273.3378906.753418.7529297.753418.4160156 0 .7539063-.3378906.7539063-.753418v-6.0126944c0-5.1518559-4.1904297-9.4150391-9.3408203-9.5039063-2.5019531-.0561523-4.8994131.9257813-6.7304678 2.7270508-1.8671875 1.8354492-2.9375 4.3779302-2.9375 6.9746099v5.8149405c0 .1992188.0791016.3867188.2216797.5283203.1445313.1464844.3320313.2250977.5322266.2250977.4160156 0 .7539063-.3378906.7539063-.753418v-6.0126949c0-4.3359375 3.5253906-7.9233403 7.859374-7.9965825.0429686-.0004883.0869139-.0009766.1298827-.0009766z"></path></g></g></g></g></svg>