<svg xmlns="http://www.w3.org/2000/svg" id="Layer_1" viewBox="0 0 105 105"><g><g><g><g><path d="m98.6128311 72.3123169v8.3687134h-30.4622803l4.0779572-29.6105309h13.6794434c2.9130249 0 5.4113846 2.0837021 5.9267044 4.9518661l1.904541 10.5202522 3.6411362 3.0919037c.7841949.6723176 1.2324981 1.6471558 1.2324981 2.6777955z" fill="#fff"></path></g><g><path d="m98.6161423 77.1977692v3.4804688h-30.4699707l4.0800781-29.6103516h5.8798828c-2.6799316 2.8203125-4.2900391 6.3999023-4.2900391 10.2900391 0 9.0898438 8.7399902 16.4599609 19.5200195 16.4599609 1.8300782 0 3.6000977-.209961 5.2800294-.6201172z" fill="#ddd"></path></g><g><path d="m72.9681168 45.7039757-4.8175659 34.9770546h-53.9338589l4.6271935-35.5596619c.1342983-1.0754929 1.0642776-1.8933258 2.1509857-1.8933258h49.8219833c1.3109989 0 2.3304157 1.1652069 2.1512623 2.4759331z" fill="#ffd9b0"></path></g><g><path d="m69.3261032 72.1479645-1.1799316 8.5302734h-53.9301787l4.6301279-35.5605469c.130127-1.0698242 1.0600586-1.8896484 2.1501465-1.8896484h1.5898438c-1.0300293 2.4697266-1.5898438 5.1000977-1.5898438 7.8398438 0 13.7802734 14.0998516 24.9399414 31.4999981 24.9399414 6.1899414 0 11.9599648-1.409668 16.8298378-3.8598633z" fill="#edb57e"></path></g></g><g><path d="m100.4613037 82.6531296-.7617645 3.5629196c-.1570053.7505417-.8178329 1.2882919-1.5908127 1.2882919h-84.5416517c-.8963356 0-1.6247282-.7281189-1.6247282-1.6247253v-3.5738602c0-.8960571.7283926-1.6247253 1.6247282-1.6247253h85.3034162c1.0418473 0 1.814827.9524078 1.5908127 1.9720993z" fill="#5b5476"></path></g><g><path d="m100.1561813 84.0879059-.4599609 2.1298828c-.1501465.75-.8100586 1.2900391-1.5900879 1.2900391h-84.5400419c-.8999023 0-1.619873-.7299805-1.619873-1.6298828v-3.5698242c0-.9003906.7199707-1.6298828 1.619873-1.6298828h2.2099609v1.7895508c0 .8901367.7299814 1.6201172 1.6201181 1.6201172h82.7600117z" fill="#3f3b5b"></path></g><g><g><path d="m98.6127853 81.4310303h-30.4624023c-.2167969 0-.4228516-.09375-.5654297-.2570801-.1425781-.1635742-.2070313-.3806152-.1777344-.5952148l4.078125-29.6105957c.0512695-.3710938.3686523-.6477051.7431641-.6477051h13.6791992c3.2822266 0 6.0854492 2.3422852 6.6650391 5.5693359l1.8564453 10.2548828 3.4365234 2.9182129c.9526367.8164063 1.4970703 1.9997559 1.4970703 3.2495117v8.3686523c0 .4143067-.3359375.7500001-.75.7500001zm-29.6020507-1.5h28.8520508v-7.6186523c0-.8112793-.3535156-1.5795898-.9707031-2.1083984l-3.6381836-3.0895996c-.1323242-.1125488-.2216797-.267334-.2524414-.4382324l-1.9047852-10.5202637c-.4516602-2.5124512-2.6337891-4.3354492-5.1889648-4.3354492h-13.0253907z" fill="#0f0f0f"></path></g><g><path d="m68.150383 81.4310303h-53.9335909c-.2158203 0-.4208984-.0930176-.5634766-.255127s-.2080078-.3776855-.1801758-.5915527l4.6269541-35.5595703c.1811523-1.4501953 1.4257813-2.5466309 2.8950195-2.5466309h49.8217735c.8413086 0 1.6425781.3649902 2.1982422 1.001709.5571289.6384277.8110352 1.4863281.6962891 2.3256836v.0007324l-4.8178711 34.9770508c-.0512695.3710937-.3686523.6477051-.743164.6477051zm-53.079587-1.5h52.4257774l4.7285166-34.3293457v.0007324c.0561523-.4101563-.0678711-.8242188-.340332-1.1364746-.2705078-.3100586-.659668-.487793-1.0678711-.487793h-49.8217735c-.7143555 0-1.3193359.5314941-1.4072266 1.2363281zm57.8974581-34.2270508h.0097656z" fill="#0f0f0f"></path></g></g><g><path d="m98.1088791 88.2542725h-84.5419893c-1.309082 0-2.3745117-1.0654297-2.3745117-2.3747559v-3.5737305c0-1.3093262 1.0654297-2.3747559 2.3745117-2.3747559h85.3037109c.7270508 0 1.4038086.3232422 1.8574219.8869629.4506836.5610352.6206055 1.2873535.4663086 1.9934082l-.7612305 3.5612793c-.2280302 1.0891114-1.2055693 1.8815919-2.3242216 1.8815919zm-84.5419893-6.8232422c-.4824219 0-.8745117.392334-.8745117.8747559v3.5737305c0 .4824219.3920898.8747559.8745117.8747559h84.5419922c.4189453 0 .7714844-.284668.8569336-.6921387l.762207-3.5656738c.0004883-.0014648.0004883-.0029297.0009766-.0041504.0581055-.2648926-.0024414-.5256348-.1704102-.734375-.1669922-.2077637-.4174805-.3269043-.6879883-.3269043h-85.3037109z" fill="#0f0f0f"></path></g><g><g><g><g><path d="m15.0629835 25.7767334c-.222168 0-.4418945-.0981445-.5898438-.286377l-8.1816401-10.4057617c-.2563477-.3256836-.199707-.7971191.1259766-1.0532227.3251953-.2558594.796875-.1994629 1.0527344.1259766l8.1816406 10.4057617c.2563477.3256836.199707.7971191-.1259766 1.0532227-.1372075.1079102-.3007817.1604004-.4628911.1604004z" fill="#0f0f0f"></path></g><g><path d="m15.7026682 17.1702595-8.5571251 6.7281933c-.5141497.4042587-1.2673407.2237434-1.5544081-.3572636-1.3224559-2.7293034-.6236906-6.1059666 1.8579092-8.057168 2.4868512-1.9553308 5.9329228-1.8376207 8.2679234.0955515.5021295.41191.4998503 1.186428-.0142994 1.5906868z" fill="#ff84a0"></path></g><g><path d="m15.702342 17.1739235-8.5568466 6.7233562c-.5139942.4054661-1.2675767.2214737-1.5561957-.3573456-.0825748-.1655674-.1509271-.3317547-.2120061-.498436l8.1916237-6.4351597c.5139704-.4058132.5182428-1.1826715.0125532-1.5971336-.4453535-.3688087-.9362488-.6705046-1.4439154-.9066944 1.2912035.1262369 2.5435486.6253071 3.5775127 1.474268.5055171.4144735.5014182 1.1913204-.0127258 1.5971451z" fill="#f76189"></path></g><g><path d="m6.5185504 24.8665771c-.1313477 0-.2636719-.0146484-.3950195-.0444336-.5263672-.1193848-.9658203-.4650879-1.2045898-.9487305-1.496582-3.0878906-.6264648-6.8618164 2.0668945-8.9790039 2.6982417-2.121582 6.5708003-2.0769043 9.2094727.1074219.4145508.340332.6513672.8466797.6455078 1.387207-.0053711.5383301-.2514648 1.0380859-.6748047 1.3708496l-8.5571289 6.7282715c-.3154298.2478028-.6982423.378418-1.0903321.378418zm5.0073237-10.0356445c-1.2788086 0-2.5585938.4133301-3.6132808 1.2426758-2.1425781 1.6845703-2.8349609 4.6875-1.6464844 7.1403809.0493164.0996094.1396484.1340332.1889648.1452637.0463867.0107422.1391602.0185547.2270508-.050293l8.5571289-6.7282715c.0874023-.0688477.1010742-.1594238.1015625-.2072754.0004883-.0488281-.0117188-.1418457-.0996094-.2141113-1.068848-.8847657-2.3916019-1.3283692-3.7153324-1.3283692zm4.1767579 2.3393555h.0097656z" fill="#0f0f0f"></path></g></g><g><g><path d="m36.6284142 25.7767334c-.1621094 0-.3256836-.0522461-.4628906-.1604004-.3256836-.2561035-.3823242-.7275391-.1259766-1.0532227l8.1816406-10.4057617c.2558594-.3254395.7275391-.3823242 1.0527344-.1259766.3256836.2561035.3823242.7275391.1259766 1.0532227l-8.1816406 10.4057617c-.1479493.1882325-.3676759.286377-.5898438.286377z" fill="#0f0f0f"></path></g><g><path d="m35.9886932 17.1702595 8.5571251 6.7281933c.5141487.4042587 1.2673378.2237434 1.5544052-.3572636 1.3224564-2.7293034.6236916-6.1059666-1.8579063-8.057168-2.4868546-1.9553308-5.9329262-1.8376207-8.2679253.0955515-.5021286.41191-.4998512 1.186428.0143013 1.5906868z" fill="#ff84a0"></path></g><g><path d="m35.9890175 17.1739235 8.5568466 6.7233562c.5139961.4054661 1.2675781.2214737 1.5561981-.3573456.0825729-.1655674.1509247-.3317547.2120056-.498436l-8.1916237-6.4351597c-.5139732-.4058132-.5182457-1.1826715-.0125542-1.5971336.4453545-.3688087.9362488-.6705046 1.4439163-.9066944-1.2912064.1262369-2.5435486.6253071-3.5775146 1.474268-.505516.4144735-.5014152 1.1913204.0127259 1.5971451z" fill="#f76189"></path></g><g><path d="m45.1728477 24.8665771c-.3920898 0-.7749023-.1306152-1.090332-.378418l-8.5571289-6.7282715c-.4233398-.3327637-.6694336-.8325195-.6748047-1.3708496-.0058594-.5405273.230957-1.046875.6484375-1.3894043 2.6337891-2.1813965 6.5073242-2.2272949 9.206543-.1052246 2.6933594 2.1171875 3.5634766 5.8911133 2.0693359 8.973877-.2412109.4887695-.6806641.8344727-1.2070313.9538574-.1313476.0297852-.2636718.0444336-.3950195.0444336zm-8.7207031-8.2858886 8.5571289 6.7282715c.0878906.0688477.1787109.0610352.2270508.050293.0493164-.0112305.1396484-.0456543.1914063-.1503906 1.1860352-2.4477539.4936523-5.4506836-1.6489258-7.1352539-2.1474609-1.6887207-5.2280273-1.652832-7.3256836.0834961-.0908203.0744629-.1030273.1674805-.1025391.2163086.0004883.0478514.0141602.1384276.1015625.2072753z" fill="#0f0f0f"></path></g></g></g><g><path d="m23.627 14.698h4.438v5.115h-4.438z" fill="#5b5476"></path></g><g><path d="m30.2077141 11.2718697v2.264843c0 .6431799-.5255146 1.1594048-1.1594048 1.1594048h-6.4050369c-.6341114 0-1.159626-.5162249-1.159626-1.1594048v-2.264843c0-.6436214.5255146-1.1598463 1.159626-1.1598463h6.4050369c.6338902 0 1.1594048.5162248 1.1594048 1.1598463z" fill="#5b5476"></path></g><g><path d="m30.2068825 11.276659v2.2645979c0 .6429138-.5266743 1.1587877-1.1585293 1.1587877h-6.4044476c-.6321125 0-1.1587868-.5158739-1.1587868-1.1587877v-.8635607h5.898859c.6321125 0 1.1587868-.5158739 1.1587868-1.1587877v-1.4113235h.5055885c.6318551 0 1.1585294.5158739 1.1585294 1.169074z" fill="#3f3b5b"></path></g><g><path d="m28.0649376 20.5631104h-4.4384766c-.4140625 0-.75-.3356934-.75-.75v-5.1147461c0-.4143066.3359375-.75.75-.75h4.4384766c.4140625 0 .75.3356934.75.75v5.1147461c0 .4143066-.3359375.75-.75.75zm-3.6884766-1.5h2.9384766v-3.6147461h-2.9384766z" fill="#0f0f0f"></path></g><g><g><path d="m52.3915977 40.5655518c-.4140625 0-.75-.3356934-.75-.75 0-2.9807129-.5063477-5.9030762-1.5053711-8.6860352-.1396484-.3898926.0629883-.8193359.4526367-.9592285.3911133-.1396484.8193359.0627441.9594727.4523926 1.0571289 2.9460449 1.5932617 6.0388184 1.5932617 9.1928711 0 .4143066-.3359375.75-.75.75z" fill="#0f0f0f"></path></g><g><path d="m49.786129 29.1021729c-.2792969 0-.5473633-.1567383-.6762695-.425293-.3925781-.8164063-.8339844-1.6218262-1.3125-2.394043-.2182617-.3522949-.109375-.8144531.2426758-1.0327148s.8144531-.109375 1.0327148.2426758c.5063477.817627.9736328 1.670166 1.3886719 2.5341797.1796875.373291.0224609.8215332-.3510742 1.0009766-.1044922.0502929-.2153321.0742187-.3242188.0742187z" fill="#0f0f0f"></path></g><g><path d="m47.1912041 39.8154488c0 11.7883377-9.560276 21.3425484-21.3486118 21.3425484-11.7819386 0-21.3424377-9.5542107-21.3424377-21.3425484 0-11.7881699 9.5604992-21.3423824 21.3424377-21.3423824 11.7883357-.0000001 21.3486118 9.5542125 21.3486118 21.3423824z" fill="#abecef"></path></g><g><path d="m45.8514252 47.2807426c-3.0331688 8.1068382-10.8476639 13.8753777-20.0078964 13.8753777-11.7851915 0-21.3424911-9.5517845-21.3424911-21.3424911 0-3.7556725.9706144-7.2796097 2.6692452-10.3458691-.8658323 2.3217545-1.340055 4.8420429-1.340055 7.4671154 0 11.7851906 9.5626507 21.3424911 21.3424377 21.3424911 8.0350904 0 15.0334959-4.4395141 18.6787596-10.996624z" fill="#75c5c9"></path></g><g><path d="m25.8427696 61.9080811c-12.1821299 0-22.0927734-9.9106445-22.0927734-22.0925293s9.9106445-22.0925293 22.0927734-22.0925293c12.1850586 0 22.0986328 9.9106445 22.0986328 22.0925293s-9.9135742 22.0925293-22.0986328 22.0925293zm0-42.6850586c-11.3549814 0-20.5927734 9.237793-20.5927734 20.5925293s9.237793 20.5925293 20.5927734 20.5925293c11.3579102 0 20.5986328-9.237793 20.5986328-20.5925293s-9.2407226-20.5925293-20.5986328-20.5925293z" fill="#0f0f0f"></path></g><g><path d="m43.4096146 39.8154488c0 9.6977654-7.8630829 17.560791-17.5670223 17.560791-9.6977634 0-17.5606251-7.8630257-17.5606251-17.560791 0-9.7038288 7.8628616-17.5668564 17.5606251-17.5668564 9.7039394 0 17.5670223 7.8630275 17.5670223 17.5668564z" fill="#fff"></path></g><g><path d="m43.4084015 39.8136292c0 9.7005196-7.8641853 17.5648727-17.5648727 17.5648727-6.3089943 0-11.8348799-3.3254585-14.9286041-8.3164597 2.9613676 2.2830963 6.6728649 3.6398621 10.6987648 3.6398621 9.7062016 0 17.5648727-7.864296 17.5648727-17.5648727 0-3.3915806-.9595871-6.562624-2.6306419-9.2484131 4.1746902 3.2097015 6.8604812 8.2557373 6.8604812 13.9250107z" fill="#ddd"></path></g><g><path d="m25.8427696 58.1263428c-10.0966806 0-18.3110352-8.2141113-18.3110352-18.310791 0-10.0998535 8.2143555-18.3168945 18.3110352-18.3168945 10.1000977 0 18.3168945 8.217041 18.3168945 18.3168945.0000001 10.0966796-8.2167968 18.310791-18.3168945 18.310791zm0-35.1276856c-9.2695313 0-16.8110352 7.5439453-16.8110352 16.8168945 0 9.2695313 7.5415049 16.810791 16.8110352 16.810791 9.2729492 0 16.8168945-7.5412598 16.8168945-16.810791.0000001-9.2729492-7.5439453-16.8168945-16.8168945-16.8168945z" fill="#0f0f0f"></path></g><g><g><path d="m31.0688438 40.8692627h-5.2236328c-.4140625 0-.75-.3356934-.75-.75v-10.4726563c0-.4143066.3359375-.75.75-.75s.75.3356934.75.75v9.7226563h4.4736328c.4140625 0 .75.3356934.75.75s-.3359375.75-.75.75z" fill="#0f0f0f"></path></g><g><path d="m29.8339806 42.2803955c-.1918945 0-.3837891-.0732422-.5302734-.2197266-.2929688-.2929688-.2929688-.7678223 0-1.0605469l.8789063-.8786621-.8789063-.8791504c-.2929688-.2929688-.2929688-.7678223 0-1.0605469.2929688-.2929688.7675781-.2929688 1.0605469 0l1.4091797 1.4094238c.140625.140625.2197266.331543.2197266.5302734 0 .1989746-.0791016.3896484-.2197266.5302734l-1.4091797 1.4089355c-.1464845.1464846-.338379.2197268-.5302735.2197268z" fill="#0f0f0f"></path></g><g><path d="m27.2543907 31.6270752c-.1918945 0-.3837891-.0732422-.5302734-.2197266l-.8789063-.8789063-.8789063.8789063c-.2929688.2929688-.7675781.2929688-1.0605469 0-.2929688-.2927246-.2929688-.7675781 0-1.0605469l1.4091797-1.4094238c.28125-.28125.7792969-.28125 1.0605469 0l1.4091797 1.4094238c.2929688.2929688.2929688.7678223 0 1.0605469-.1464843.1464844-.3383789.2197266-.5302734.2197266z" fill="#0f0f0f"></path></g></g><g><path d="m25.845 40.119-5.816 5.317" fill="#fff"></path><path d="m20.0288048 46.1859131c-.203125 0-.4057617-.0820313-.5537109-.2438965-.2792969-.3059082-.2578125-.7802734.0478516-1.0595703l5.8164063-5.3166504c.3051758-.2792969.7802734-.2583008 1.0595703.0473633.2792969.3059082.2578125.7802734-.0478516 1.0595703l-5.8164063 5.3166504c-.1435547.1315918-.3251954.1965332-.5058594.1965332z" fill="#0f0f0f"></path></g><g><path d="m27.5442009 39.8126907c0 .9378014-.760334 1.6981888-1.6987419 1.6981888-.937746 0-1.6981335-.7603874-1.6981335-1.6981888 0-.9383507.7603874-1.6987381 1.6981335-1.6987381.9384079 0 1.6987419.7603875 1.6987419 1.6987381z" fill="#5b5476"></path><path d="m25.8456993 42.2608643c-1.3500977 0-2.4482422-1.0983887-2.4482422-2.4482422 0-1.3503418 1.0981445-2.4487305 2.4482422-2.4487305s2.4487305 1.0983887 2.4487305 2.4487305c0 1.3498535-1.0986328 2.4482422-2.4487305 2.4482422zm0-3.3969727c-.5229492 0-.9482422.4255371-.9482422.9487305 0 .5229492.425293.9482422.9482422.9482422s.9487305-.425293.9487305-.9482422c0-.5231934-.4257813-.9487305-.9487305-.9487305z" fill="#0f0f0f"></path></g></g><g><path d="m29.048336 15.446167h-6.4052734c-1.0527344 0-1.9091797-.8564453-1.9091797-1.9094238v-2.2648926c0-1.0532227.8564453-1.9099121 1.9091797-1.9099121h6.4052734c1.0527344 0 1.9091797.8566895 1.9091797 1.9099121v2.2648926c0 1.0529785-.8564453 1.9094238-1.9091797 1.9094238zm-6.4052734-4.5842285c-.2255859 0-.4091797.1838379-.4091797.4099121v2.2648926c0 .2258301.1835938.4094238.4091797.4094238h6.4052734c.2255859 0 .4091797-.1835938.4091797-.4094238v-2.2648926c0-.2260742-.1835938-.4099121-.4091797-.4099121z" fill="#0f0f0f"></path></g><g><g><path d="m25.8427696 24.9605713c-.4140625 0-.75-.3356934-.75-.75v-1.9619141c0-.4143066.3359375-.75.75-.75s.75.3356934.75.75v1.9619141c0 .4143066-.3359375.75-.75.75z" fill="#0f0f0f"></path></g><g><path d="m25.8427696 58.1263428c-.4140625 0-.75-.3356934-.75-.75v-1.9621582c0-.4143066.3359375-.75.75-.75s.75.3356934.75.75v1.9621582c0 .4143066-.3359375.75-.75.75z" fill="#0f0f0f"></path></g></g><g><g><path d="m18.0424767 27.0523682c-.2587891 0-.5112305-.1347656-.6499023-.3752441l-.980957-1.6992188c-.2070313-.3586426-.0844727-.8173828.2744141-1.0244141.3579102-.2072754.8173828-.0844727 1.0244141.2744141l.980957 1.6992188c.2070313.3586426.0844727.8173828-.2744141 1.0244141-.1181642.0683593-.2470704.10083-.3745118.10083z" fill="#0f0f0f"></path></g><g><path d="m34.6254845 55.7745361c-.2587891 0-.5112305-.1347656-.6499023-.3752441l-.980957-1.6992188c-.2070313-.3586426-.0844727-.8173828.2744141-1.0244141.3579102-.2070313.8173828-.0842285 1.0244141.2744141l.980957 1.6992188c.2070313.3586426.0844727.8173828-.2744141 1.0244141-.1181642.0683593-.2470704.10083-.3745118.10083z" fill="#0f0f0f"></path></g></g><g><g><path d="m12.3320265 32.7640381c-.1274414 0-.2563477-.0324707-.3745117-.1008301l-1.6992188-.9812012c-.3588867-.2070313-.4814453-.6657715-.2744141-1.0244141.2070313-.359375.6660156-.4816895 1.0244141-.2744141l1.6992188.9812012c.3588867.2070313.4814453.6657715.2744141 1.0244141-.1386719.2407227-.3911134.3752442-.6499024.3752442z" fill="#0f0f0f"></path></g><g><path d="m41.0541954 49.3468018c-.1274414 0-.2563477-.0324707-.3745117-.1008301l-1.6992188-.980957c-.3588867-.2070313-.4814453-.6657715-.2744141-1.0244141.2070313-.3588867.6660156-.4819336 1.0244141-.2744141l1.6992188.980957c.3588867.2070313.4814453.6657715.2744141 1.0244141-.1386719.2404785-.3911133.3752442-.6499024.3752442z" fill="#0f0f0f"></path></g></g><g><g><path d="m10.2431593 40.5650635h-1.9619141c-.414062 0-.7499995-.3356934-.7499995-.75s.3359375-.75.7499995-.75h1.9619141c.4140625 0 .75.3356934.75.75s-.3359375.75-.75.75z" fill="#0f0f0f"></path></g><g><path d="m43.4091759 40.5650635h-1.9624023c-.4140625 0-.75-.3356934-.75-.75s.3359375-.75.75-.75h1.9624023c.4140625 0 .75.3356934.75.75s-.3359375.75-.75.75z" fill="#0f0f0f"></path></g></g><g><g><path d="m10.6362257 49.3468018c-.2587891 0-.5112305-.1347656-.6499023-.3752441-.2070313-.3586426-.0844727-.8173828.2744141-1.0244141l1.6992188-.980957c.3583984-.2075195.8173828-.0844727 1.0244141.2744141.2070313.3586426.0844727.8173828-.2744141 1.0244141l-1.6992188.980957c-.1181641.0683593-.2470704.10083-.3745118.10083z" fill="#0f0f0f"></path></g><g><path d="m39.3583946 32.7640381c-.2587891 0-.5112305-.1345215-.6499023-.3752441-.2070313-.3586426-.0844727-.8173828.2744141-1.0244141l1.6992188-.9812012c.3579102-.2072754.8173828-.0849609 1.0244141.2744141.2070313.3586426.0844727.8173828-.2744141 1.0244141l-1.6992188.9812012c-.1181641.0683593-.2470704.10083-.3745118.10083z" fill="#0f0f0f"></path></g></g><g><g><path d="m17.0649376 55.7745361c-.1274414 0-.2563477-.0324707-.3745117-.1008301-.3588867-.2070313-.4814453-.6657715-.2744141-1.0244141l.980957-1.6992188c.2070313-.3586426.6660156-.4814453 1.0244141-.2744141.3588867.2070313.4814453.6657715.2744141 1.0244141l-.980957 1.6992188c-.1386719.2404786-.3911133.3752442-.6499024.3752442z" fill="#0f0f0f"></path></g><g><path d="m33.6479454 27.0523682c-.1274414 0-.2563477-.0324707-.3745117-.1008301-.3588867-.2070313-.4814453-.6657715-.2744141-1.0244141l.980957-1.6992188c.2070313-.3588867.6665039-.4816895 1.0244141-.2744141.3588867.2070313.4814453.6657715.2744141 1.0244141l-.980957 1.6992188c-.1386719.2404785-.3911133.3752442-.6499024.3752442z" fill="#0f0f0f"></path></g></g></g><g><circle cx="32.084" cy="85.249" fill="#dabcbc" r="9.565"></circle></g><g><path d="m32.0846024 89.8175354c-2.5191021 0-4.5684528-2.0493546-4.5684528-4.5682526 0-2.5189056 2.0493507-4.5682526 4.5684528-4.5682526 2.5186996 0 4.5680504 2.0493469 4.5680504 4.5682526-.0000001 2.518898-2.0493508 4.5682526-4.5680504 4.5682526z" fill="#fff"></path></g><g><path d="m32.0844688 90.5675049c-2.9326172 0-5.3183594-2.3857422-5.3183594-5.3181152 0-2.9326172 2.3857422-5.3183594 5.3183594-5.3183594s5.3183594 2.3857422 5.3183594 5.3183594c0 2.932373-2.3857422 5.3181152-5.3183594 5.3181152zm0-9.1364746c-2.1054688 0-3.8183594 1.7128906-3.8183594 3.8183594 0 2.1052246 1.7128906 3.8181152 3.8183594 3.8181152s3.8183594-1.7128906 3.8183594-3.8181152c0-2.1054688-1.7128906-3.8183594-3.8183594-3.8183594z" fill="#0f0f0f"></path></g><g><circle cx="83.383" cy="85.249" fill="#dabcbc" r="9.565"></circle></g><g><path d="m92.9462204 85.2480621c0 5.2797852-4.2800293 9.5698242-9.5600586 9.5698242-3.2700195 0-6.1599121-1.6396484-7.880127-4.1396484 1.5500488 1.0698242 3.420166 1.699707 5.4401855 1.699707 5.2800293 0 9.5598145-4.2797852 9.5598145-9.5698242 0-2.0200195-.619873-3.8901367-1.6899414-5.4301758 2.4899903 1.7202149 4.130127 4.6098633 4.130127 7.8701172z" fill="#bc9595"></path></g><g><path d="m41.649601 85.2480621c0 5.2797852-4.2800293 9.5698242-9.5600586 9.5698242-3.2700214 0-6.159914-1.6396484-7.8801289-4.1396484 1.5500488 1.0698242 3.420166 1.699707 5.4401855 1.699707 5.2800312 0 9.5598164-4.2797852 9.5598164-9.5698242 0-2.0200195-.619873-3.8901367-1.6899414-5.4301758 2.4899903 1.7202149 4.130127 4.6098633 4.130127 7.8701172z" fill="#bc9595"></path></g><g><path d="m32.0844688 95.5645752c-5.6879883 0-10.3154297-4.6274414-10.3154297-10.3151855s4.6274414-10.3151855 10.3154297-10.3151855c5.6875 0 10.3149414 4.6274414 10.3149414 10.3151855s-4.6274414 10.3151855-10.3149414 10.3151855zm0-19.1303711c-4.8608398 0-8.8154297 3.9545898-8.8154297 8.8151855s3.9545898 8.8151855 8.8154297 8.8151855c4.8603516 0 8.8149414-3.9545898 8.8149414-8.8151855s-3.9545898-8.8151855-8.8149414-8.8151855z" fill="#0f0f0f"></path></g><g><path d="m83.3828049 95.5645752c-5.6875 0-10.3149414-4.6274414-10.3149414-10.3151855s4.6274414-10.3151855 10.3149414-10.3151855c5.6879883 0 10.3154297 4.6274414 10.3154297 10.3151855s-4.6274414 10.3151855-10.3154297 10.3151855zm0-19.1303711c-4.8603516 0-8.8149414 3.9545898-8.8149414 8.8151855s3.9545898 8.8151855 8.8149414 8.8151855c4.8608398 0 8.8154297-3.9545898 8.8154297-8.8151855s-3.9545899-8.8151855-8.8154297-8.8151855z" fill="#0f0f0f"></path></g><g><path d="m88.0560837 66.2280426h-12.3798828c-.7900391 0-1.4001465-.7001953-1.2900391-1.4799805l1.1699219-8.550293c.0900879-.6499023.6501465-1.1298828 1.3000488-1.1298828h9.0500488c.9799805 0 1.8200684.7001953 1.9899902 1.6601563l1.4399414 7.9599609c.1499024.8100586-.4699706 1.5400391-1.2800292 1.5400391z" fill="#c3c9fb"></path></g><g><path d="m88.0560837 66.2280426h-12.3798828c-.7900391 0-1.4001465-.7001953-1.2900391-1.4799805l1.1699219-8.550293c.0900879-.6499023.6501465-1.1298828 1.3000488-1.1298828h1.3500977l-.9399414 6.9399414c-.1201172.7802734.5 1.4799805 1.2897949 1.4799805h10.5600586l.2199707 1.2001953c.1499023.8100586-.4699707 1.5400391-1.2800293 1.5400391z" fill="#8693e2"></path></g><g><path d="m88.0561447 66.9781494h-12.3798828c-.5947266 0-1.1601563-.2578125-1.550293-.7075195-.3896484-.4484863-.5654297-1.0415039-.4824219-1.6274414l1.1694336-8.546875c.1401367-1.0144043 1.0185547-1.7783203 2.0429688-1.7783203h9.050293c1.347168 0 2.4946289.9587402 2.7280273 2.279541l1.4394531 7.9570313c.1113281.6000977-.0483398 1.2150879-.4389648 1.684082-.390625.4699707-.9663086.7395019-1.5786133.7395019zm-11.2001953-11.1601562c-.2792969 0-.519043.2075195-.5566406.482666l-1.1699219 8.5490723c-.0307617.2165527.0673828.3666992.1289063.4372559.0620117.0712891.1987305.1911621.4179688.1911621h12.3798828c.2265625 0 .3637695-.1245117.4257813-.1987305.0610352-.0737305.1582031-.230957.1166992-.454834l-1.4404297-7.9628906c-.1074219-.605957-.6337891-1.0437012-1.2519531-1.0437012z" fill="#0f0f0f"></path></g><g><path d="m83.3831558 89.8175354c-2.519104 0-4.5684509-2.0493546-4.5684509-4.5682526 0-2.5189056 2.0493469-4.5682526 4.5684509-4.5682526 2.5186996 0 4.5680542 2.0493469 4.5680542 4.5682526 0 2.518898-2.0493545 4.5682526-4.5680542 4.5682526z" fill="#fff"></path></g><g><path d="m83.3832932 90.5675049c-2.9326172 0-5.3183594-2.3857422-5.3183594-5.3181152 0-2.9326172 2.3857422-5.3183594 5.3183594-5.3183594 2.9321289 0 5.3178711 2.3857422 5.3178711 5.3183594-.0000001 2.932373-2.3857422 5.3181152-5.3178711 5.3181152zm0-9.1364746c-2.1054688 0-3.8183594 1.7128906-3.8183594 3.8183594 0 2.1052246 1.7128906 3.8181152 3.8183594 3.8181152 2.1049805 0 3.8178711-1.7128906 3.8178711-3.8181152-.0000001-2.1054688-1.7128907-3.8183594-3.8178711-3.8183594z" fill="#0f0f0f"></path></g><g><path d="m82.6684494 70.3355713h-2.5c-.4140625 0-.75-.3356934-.75-.75s.3359375-.75.75-.75h2.5c.4140625 0 .75.3356934.75.75s-.3359375.75-.75.75z" fill="#0f0f0f"></path></g><g><path d="m98.6161423 72.5581207v4.9296875h-3.2299805c-.5700684 0-1.0300293-.4599609-1.0300293-1.0297852v-2.8701172c0-.5698242.4599609-1.0297852 1.0300293-1.0297852h3.2299805z" fill="#ff84a0"></path></g><g><path d="m98.6162033 78.237915h-3.2299805c-.9814453 0-1.7802734-.7983398-1.7802734-1.7797852v-2.8701172c0-.9814453.7988281-1.7797852 1.7802734-1.7797852h3.2299805c.4140625 0 .75.3356934.75.75v4.9296875c0 .4143068-.3359375.7500001-.75.7500001zm-3.2299805-4.9296875c-.1572266 0-.2802734.1228027-.2802734.2797852v2.8701172c0 .1569824.1230469.2797852.2802734.2797852h2.4799805v-3.4296875h-2.4799805z" fill="#0f0f0f"></path></g><g><g><path d="m30.5351524 64.5645752h-22.6972661c-.4140625 0-.75-.3356934-.75-.75s.3359375-.75.75-.75h22.6972656c.4140625 0 .75.3356934.75.75s-.335937.75-.7499995.75z" fill="#0f0f0f"></path></g><g><path d="m31.4604454 70.1063232h-12.6850586c-.4140625 0-.75-.3356934-.75-.75s.3359375-.75.75-.75h12.6850586c.4140625 0 .75.3356934.75.75s-.3359375.75-.75.75z" fill="#0f0f0f"></path></g><g><path d="m19.1865196 75.6480713h-14.3305669c-.4140625 0-.75-.3356934-.75-.75s.3359375-.75.75-.75h14.3305664c.4140625 0 .75.3356934.75.75s-.335937.75-.7499995.75z" fill="#0f0f0f"></path></g></g><g><g><path d="m66.9765549 32.8349609c0 1.865097-1.5085983 3.3736992-3.3672981 3.3736992-1.8650017 0-3.3736-1.5086021-3.3736-3.3736992 0-1.8586006 1.5085983-3.3672009 3.3736-3.3672009 1.8586997.0000001 3.3672981 1.5086003 3.3672981 3.3672009z" fill="#aff2b6"></path></g><g><path d="m66.9768524 32.8338585c0 1.8625031-1.5121994 3.3748016-3.3667717 3.3748016-1.4566269 0-2.7062263-.9313011-3.175827-2.2285995.5094032.3103981 1.1142998.4934006 1.7590027.4934006 1.8624992 0 3.3748207-1.5123024 3.3748207-3.3748016 0-.3899994-.0636215-.7719994-.1909943-1.1222992.9550705.5890998 1.5997696 1.6476001 1.5997696 2.8574981z" fill="#7fd685"></path></g><g><path d="m63.6093712 36.9586182c-2.2739258 0-4.1235352-1.8498535-4.1235352-4.1237793 0-2.2702637 1.8496094-4.1171875 4.1235352-4.1171875 2.2700157 0 4.1171837 1.8469238 4.1171837 4.1171875 0 2.2739257-1.847168 4.1237793-4.1171837 4.1237793zm0-6.7409668c-1.4467773 0-2.6235352 1.1740723-2.6235352 2.6171875 0 1.4467773 1.1767578 2.6237793 2.6235352 2.6237793 1.4433556 0 2.6171837-1.177002 2.6171837-2.6237793 0-1.4431153-1.1738282-2.6171875-2.6171837-2.6171875z" fill="#0f0f0f"></path></g></g><g><g><path d="m97.5278549 43.3823929c-2.9637756.6105003-5.2950974 2.9491005-5.9056015 5.9129982-.0366974.1765022-.2721024.1765022-.3087997 0-.3014984-1.4855995-1.0370026-2.8093987-2.0739975-3.8390007-1.0222015-1.0295982-2.3460007-1.7723999-3.831604-2.0739975-.1764984-.0367012-.1764984-.2721024 0-.3087997 1.4856033-.3015022 2.8094025-1.0443001 3.8390045-2.0740013 1.0295944-1.0294991 1.7650986-2.3534012 2.066597-3.8389015.0366974-.1764984.2721024-.1764984.3087997 0 .3015976 1.4855003 1.0370026 2.8094025 2.0666046 3.8389015 1.0295944 1.0297012 2.3533936 1.7724991 3.8389969 2.0740013.1764984.0366973.1764984.2720985 0 .3087997z" fill="#ffd9b0"></path></g><g><path d="m97.5308533 43.3785934c-2.9701004.6099968-5.2999954 2.9499969-5.9100952 5.9199982-.0399017.170002-.2699051.170002-.3100052 0-.2899017-1.4199982-.9598999-2.6899986-1.919899-3.6899986 2.3000031-.420002 4.0500031-2.3800011 4.1500015-4.7800026.0400009.0600014.0999985.1200027.1500015.170002 1.0299988 1.0299988 2.3499985 1.7700005 3.8399963 2.0699997.1699982.0400009.1699982.2799988.0000001.3100013z" fill="#edb57e"></path></g><g><path d="m91.4677658 50.1776123c-.434082 0-.7993164-.3000488-.8886719-.7299805-.2670898-1.3156738-.9130859-2.5107422-1.8681641-3.4589844-.9536133-.9604492-2.1459961-1.605957-3.4521484-1.8710938-.434082-.0908203-.7333984-.456543-.7333984-.8901367.0004883-.4338379.300293-.7988281.7299805-.8881836 1.3071289-.2651367 2.5029297-.9116211 3.4614258-1.869873.9516602-.9521484 1.5957031-2.1477051 1.8618164-3.4580078.0898438-.4328613.4550781-.7329102.8891602-.7329102s.7993164.3000488.8886719.7299805c.2666016 1.3132324.9106445 2.5090332 1.862793 3.4609375.9580078.958252 2.1538086 1.6044922 3.4580078 1.8691406.4326172.0898438.7329102.454834.7333984.888916 0 .4338379-.2998047.7995605-.7294922.8891602-.0009766.0002441-.0014648.0002441-.0019531.0004883-2.6796875.5517578-4.769043 2.6437988-5.3227539 5.3295898-.0893556.4309083-.45459.7309571-.888672.7309571zm-4.1269531-6.949707c.8974609.4108887 1.7202148.984375 2.4306641 1.7001953.7133789.7080078 1.2856445 1.53125 1.6972656 2.432373.8330078-1.829834 2.300293-3.298584 4.1274414-4.1318359-.8979492-.4106445-1.7226563-.9836426-2.4375-1.6987305-.7109375-.7106934-1.28125-1.5332031-1.690918-2.4313965-.409668.8977051-.9794922 1.720459-1.6904297 2.4313965-.7148437.7148438-1.5390625 1.2871094-2.4365234 1.6979981zm10.1870117.154541h.0097656z" fill="#0f0f0f"></path></g></g><g><path d="m66.3461838 91.6695557h-15.6621056c-.4140625 0-.75-.3356934-.75-.75s.3359375-.75.75-.75h15.6621056c.4140625 0 .75.3356934.75.75s-.3359375.75-.75.75z" fill="#0f0f0f"></path></g><g><path d="m47.2456017 91.6695557h-1.4892578c-.4140625 0-.75-.3356934-.75-.75s.3359375-.75.75-.75h1.4892578c.4140625 0 .75.3356934.75.75s-.3359375.75-.75.75z" fill="#0f0f0f"></path></g></g><g><path d="m97.1967697 95.6380615h-89.3930631c-.4140625 0-.75-.3356934-.75-.75s.3359375-.75.75-.75h89.3930664c.4140625 0 .75.3356934.75.75s-.3359408.75-.7500033.75z" fill="#0f0f0f"></path></g></g></svg>