<svg xmlns="http://www.w3.org/2000/svg" id="Layer_1" viewBox="0 0 105 105"><g><g><g><g><g><path d="m78.8167877 16.250061v72.5c0 6.4902344-5.2600098 11.75-11.75 11.75h-42.5c-6.4899902 0-11.750001-5.2597656-11.750001-11.75v-72.5c0-6.4902334 5.2600107-11.75 11.750001-11.75h42.5c6.4899903.0000005 11.75 5.2597666 11.75 11.75z" fill="#5b5476"></path></g><g><path d="m78.5667877 91.1802368c-1.1199951 5.3198242-5.8399658 9.3198242-11.5 9.3198242h-42.5c-6.4899902 0-11.750001-5.2597656-11.750001-11.75v-72.5c0-6.4902334 5.2600107-11.75 11.750001-11.75h2.2199707c-6.6899414 9.6098633-10.7199707 21.9697266-10.7199707 35.4399414 0 30.6499023 18.8500977 55.5102539 44.5600586 55.5102539 6.3599854 0 12.4199219-1.5200195 17.9399414-4.2700195z" fill="#3f3b5b"></path></g><g><path d="m67.0665512 101.2501144h-42.5c-6.8925781 0-12.499999-5.6074219-12.499999-12.5v-72.5c0-6.8925781 5.6074209-12.5 12.499999-12.5h42.5c6.8925781 0 12.5 5.6074219 12.5 12.5v72.5c0 6.8925782-5.6074219 12.5-12.5 12.5zm-42.5-95.9999985c-6.0654297 0-10.999999 4.9345708-10.999999 11v72.5c0 6.0654297 4.9345694 11 10.999999 11h42.5c6.0654297 0 11-4.9345703 11-11v-72.5c0-6.0654297-4.9345703-11-11-11z" fill="#0f0f0f"></path></g><g><g><path d="m78.8167877 23.250061v53.5c0 6.4902344-5.2600098 11.75-11.75 11.75h-42.5c-6.4899902 0-11.750001-5.2597656-11.750001-11.75v-53.5c0-6.4902344 5.2600107-11.749999 11.750001-11.749999h42.5c6.4899903 0 11.75 5.2597647 11.75 11.749999z" fill="#fff"></path></g><g><path d="m78.8167877 74.6299438v2.1201172c0 6.4902344-5.2600098 11.75-11.75 11.75h-42.5c-6.4899902 0-11.750001-5.2597656-11.750001-11.75v-53.5c0-6.4902344 5.2600107-11.749999 11.750001-11.749999h8.9100342c-9.3000488 7.0200186-15.210083 17.5200195-15.210083 29.2597656 0 21.1201172 17.1201172 38.2402344 40.710083 38.2402344 7.1600342-.000001 13.9100342-1.5800791 19.8399658-4.3701182z" fill="#ddd"></path></g><g><path d="m67.0665512 89.2501144h-42.5c-6.8925781 0-12.499999-5.6074219-12.499999-12.5v-53.5c0-6.8925781 5.6074209-12.5 12.499999-12.5h42.5c6.8925781 0 12.5 5.6074219 12.5 12.5v53.5c0 6.8925782-5.6074219 12.5-12.5 12.5zm-42.5-76.9999981c-6.0654297 0-10.999999 4.9345703-10.999999 11v53.5c0 6.0654297 4.9345694 11 10.999999 11h42.5c6.0654297 0 11-4.9345703 11-11v-53.5c0-6.0654297-4.9345703-11-11-11z" fill="#0f0f0f"></path></g></g><g><path d="m53.4608116 93.9624634c0 .8798828-.7199707 1.6000977-1.5998535 1.6000977h-12.8100586c-.8800049 0-1.5900879-.7202148-1.5900879-1.6000977s.710083-1.5898438 1.5900879-1.5898438h12.8100586c.8798828 0 1.5998535.709961 1.5998535 1.5898438z" fill="#fff"></path></g><g><path d="m51.8609848 96.3126144h-12.8100586c-1.2905273 0-2.340332-1.0541992-2.340332-2.3500977 0-1.2902832 1.0498047-2.3398438 2.340332-2.3398438h12.8100586c1.2954102 0 2.3496094 1.0495605 2.3496094 2.3398438 0 1.2958985-1.0541992 2.3500977-2.3496094 2.3500977zm-12.8100586-3.1899414c-.4633789 0-.840332.376709-.840332.8398438 0 .46875.3769531.8500977.840332.8500977h12.8100586c.4682617 0 .8496094-.3813477.8496094-.8500977 0-.4631348-.3813477-.8398438-.8496094-.8398438z" fill="#0f0f0f"></path></g></g><g><g><path d="m53.6915512 9.0001163h-10.4580078c-.4140625 0-.75-.3356934-.75-.75 0-.4143071.3359375-.7500005.75-.7500005h10.4580078c.4140625 0 .75.3356934.75.7500005 0 .4143067-.3359375.75-.75.75z" fill="#0f0f0f"></path></g><g><path d="m39.9835434 9.0001163h-2.2919922c-.4140625 0-.75-.3356934-.75-.75 0-.4143071.3359375-.7500005.75-.7500005h2.2919922c.4140625 0 .75.3356934.75.7500005 0 .4143067-.3359375.75-.75.75z" fill="#0f0f0f"></path></g></g></g><g><g><g><path d="m78.8186798 25.1324844-23.510006 26.659668 23.510006 21.1201172v3.8398438c0 2.7602539-.9499512 5.300293-2.5500488 7.3100586l-12.9199181-11.6000977-14.1799316 16.040039h-13.3500977l20.1000977-22.7197266-22.880127-20.5498047-20.2199726 19.909668v-14.040039l12.7600098-12.5600586-12.7600098-11.4599609v-3.8300781c0-2.7695313.9499512-5.3095703 2.5600586-7.3198233l32.4799805 29.1801758 27.0200157-30.6401367c2.4199219 2.1601553 3.9399414 5.2900381 3.9399414 8.7797842v1.880371z" fill="#c3c9fb"></path></g></g></g><g><g><g><path d="m61.4687042 74.5924454h.0000038l-12.2999268 13.909668h-4.25l12.0692558-13.6524887c1.1628572-1.3153992 3.1749421-1.4308854 4.4806672-.2571793z" fill="#8693e2"></path></g><g><path d="m78.8186798 25.1324844-23.510006 26.659668 23.510006 21.1201172v3.8398438c0 2.7602539-.9499512 5.300293-2.5500488 7.3100586l-2.7399902-2.4599609c.6700439-1.4799805 1.0400391-3.1196289 1.0400391-4.8500977v-.8911744c0-1.8767166-.7974319-3.6650391-2.1935272-4.91922l-19.5645829-17.575756c-.9701424-.8715248-1.0568314-2.3619919-.1942711-3.3401146l20.708683-23.4830437c.8014679-.9088402 1.2436981-2.0789375 1.2436981-3.2906895v-.0000019c0-2.3295898-.6799316-4.5-1.8499756-6.3295898l2.1600342-2.4501944c2.4199219 2.1601553 3.9399414 5.2900381 3.9399414 8.7797842z" fill="#8693e2"></path></g></g></g><g><g><g><path d="m49.168602 89.2520676h-13.3500977c-.2949219 0-.5625-.1728516-.6835938-.4418945-.121582-.269043-.0737305-.5839844.1220703-.8051758l19.6064453-22.1621094-21.8012694-19.5810547-19.7172842 19.4147949c-.2158203.2119141-.5390625.2731934-.815918.1574707-.2788086-.1169434-.4604492-.3896484-.4604492-.6918945v-14.0400391c0-.2009277.0805664-.3935547.2241211-.5344238l12.1914053-12.0004883-12.166503-10.927c-.1586914-.142334-.2490234-.3452148-.2490234-.5581055v-3.8300781c0-2.8696289.9423828-5.5627441 2.7246094-7.7885742.1289063-.1611328.3183594-.2619629.5239258-.2788086.2050781-.0170898.409668.0515137.5629883.1896973l31.9165039 28.6743145 26.5195313-30.0725079c.1318359-.1496582.3183594-.2407227.5175781-.2526855.2060547-.0107422.3959961.0566406.5444336.189209 2.6630859 2.3771973 4.1904297 5.78125 4.1904297 9.3393555v1.8803711c0 .1826172-.0668945.3591309-.1875.4960938l-23.0180664 26.102293 22.956543 20.6235352c.1586914.1420898.2490234.3449707.2490234.5578613v3.8398438c0 2.8586426-.9379883 5.5478516-2.7128906 7.7770996-.1289063.1618652-.3183594.2631836-.5244141.2802734-.206543.0168457-.4101563-.0512695-.5634766-.189209l-12.3574229-11.095215-13.6796875 15.473877c-.1425781.1608886-.347168.2531738-.5620117.2531738zm-11.6850586-1.5h11.347168l13.9560547-15.7868652c.1323242-.1496582.3193359-.2404785.519043-.2519531.2006836-.0090332.3955078.057373.5439453.1906738l12.3066406 11.0495605c1.253418-1.826416 1.9121094-3.9543457 1.9121094-6.201416v-3.5053711l-23.2607423-20.8967285c-.3061523-.2749023-.3334961-.7453613-.0615234-1.0539551l23.3222656-26.4470196v-1.5969238c0-2.8793945-1.137207-5.6447754-3.1435547-7.6984863l-26.5039062 30.0549297c-.1323242.1501465-.3193359.2409668-.519043.2526855-.1992188.0109863-.3959961-.0568848-.5449219-.190918l-31.8681631-28.6306133c-1.2587891 1.8242188-1.9204102 3.9560547-1.9204102 6.2124023v3.4956055l12.5112295 11.2363262c.1542969.1384277.2441406.3339844.2490234.5410156.0043945.2067871-.0761719.4064941-.2236328.5515137l-12.53662 12.3398438v11.9348145l18.9438467-18.6530762c.2827148-.2783203.7329102-.2883301 1.0273438-.0236816l22.8798828 20.5500488c.3066406.2751465.3339844.7463379.0605469 1.0549316zm41.3349609-62.619627h.0097657z" fill="#0f0f0f"></path></g></g></g><g><g><g><path d="m59.8656731 29.9235573c0 5.099762-6.9134216 14.1782799-10.3881454 18.4191246-1.0078697 1.2300911-2.8825073 1.2300911-3.890377 0-3.4747238-4.2408447-10.3881454-13.3193626-10.3881454-18.4191246 0-6.811512 5.5218239-12.3333321 12.3333359-12.3333321s12.3333319 5.5218201 12.3333319 12.3333321z" fill="#ff84a0"></path></g><g><path d="m39.6212921 30.5934792c0 4.8500977 6.25 13.2900391 9.8500977 17.7602539-1.0100098 1.2197266-2.880127 1.2197266-3.880127-.0102539-3.4799805-4.2397461-10.3898926-13.3198242-10.3898926-18.4199219 0-6.8100586 5.5200195-12.3300781 12.329834-12.3300781 1.4101563 0 2.7602539.2402344 4.0200195.6699219-6.6298828.2099609-11.9299316 5.6601562-11.9299316 12.3300781z" fill="#f76189"></path></g><g><circle cx="47.532" cy="29.924" fill="#fff" r="6.946"></circle></g><g><path d="m54.4813995 29.9235573c0 3.8398438-3.1101074 6.9501953-6.9501953 6.9501953-2.8598633 0-5.3198242-1.7304688-6.3798828-4.2001953.9399414.4799805 2 .75 3.1298828.75 3.8400879 0 6.9501953-3.1098633 6.9501953-6.9399414 0-.9799805-.2001953-1.9101563-.5800781-2.7602539 2.2700195 1.1303711 3.8300781 3.4804687 3.8300781 6.2001953z" fill="#ddd"></path></g><g><path d="m47.5323715 50.0152512c-.9814453 0-1.9023438-.4362793-2.5253906-1.1972656-3.9433594-4.8125-10.5581055-13.6665039-10.5581055-18.8945293 0-7.2141113 5.8691406-13.083252 13.0834961-13.083252s13.0834961 5.8691406 13.0834961 13.083252c0 5.2280254-6.6147461 14.0820293-10.5581055 18.8945293-.6230468.7609863-1.5439453 1.1972656-2.5253906 1.1972656zm0-31.675047c-6.387207 0-11.5834961 5.1962891-11.5834961 11.583252 0 4.9392071 7.1459961 14.1940899 10.2182617 17.9438457.6748047.8237305 2.0556641.8237305 2.7304688 0 3.0722656-3.7497559 10.2182617-13.0046387 10.2182617-17.9438457 0-6.3869629-5.196289-11.583252-11.5834961-11.583252z" fill="#0f0f0f"></path></g><g><path d="m47.5323715 37.6194992c-4.2436523 0-7.6958008-3.4523926-7.6958008-7.696043 0-4.2434082 3.4521484-7.6958008 7.6958008-7.6958008s7.6958008 3.4523926 7.6958008 7.6958008c0 4.2436504-3.4521484 7.696043-7.6958008 7.696043zm0-13.8918438c-3.4165039 0-6.1958008 2.779541-6.1958008 6.1958008 0 3.416502 2.7792969 6.196043 6.1958008 6.196043s6.1958008-2.779541 6.1958008-6.196043c0-3.4162598-2.7792969-6.1958008-6.1958008-6.1958008z" fill="#0f0f0f"></path></g></g></g></g><g><g><g><path d="m90.3692856 68.8316574c-.4140625 0-.75-.3356934-.75-.75 0-8.246582-3.3842773-15.2133789-7.390625-15.2133789s-7.390625 6.9667969-7.390625 15.2133789c0 .4143066-.3359375.75-.75.75s-.75-.3356934-.75-.75c0-9.3720703 3.9052734-16.7133789 8.890625-16.7133789s8.890625 7.3413086 8.890625 16.7133789c0 .4143067-.3359375.75-.75.75z" fill="#0f0f0f"></path></g><g><path d="m83.7770386 63.9900894h10.4490814c1.6185303 0 2.9739838 1.2257309 3.1365967 2.8355865l3.0502396 30.2053299c.1875458 1.8566666-1.2701797 3.4690552-3.1366043 3.4690552h-13.4993134z" fill="#ffd9b0"></path></g><g><path d="m83.7770386 63.9926186v2.4644737h8.4885254c1.620697 0 2.9750671 1.2286224 3.1378632 2.8345032l3.0491562 30.2093048c.0296249.2663269.0220413.5254211-.0222244.7772903 1.2728882-.4957886 2.1312943-1.7984924 1.9833221-3.2489853l-3.0491562-30.2020798c-.1626129-1.613472-1.516983-2.834507-3.1376877-2.834507h-10.4497986z" fill="#edb57e"></path></g><g><path d="m97.2765121 101.2501144h-13.4995117c-.4140625 0-.75-.3356934-.75-.75v-36.5100097c0-.4143066.3359375-.75.75-.75h10.4492188c2.0117188 0 3.6806641 1.5090332 3.8828125 3.5102539l3.0498047 30.2053223c.1108398 1.0952148-.2490234 2.1918945-.9873047 3.0087891s-1.7934571 1.2856444-2.8950196 1.2856444zm-12.7495117-1.5h12.7495117c.6879883 0 1.3208008-.2810059 1.7822266-.7915039.4614258-.5102539.6772461-1.1679688.6079102-1.8520508l-3.0498047-30.2053223c-.1245117-1.2321777-1.1523438-2.1611328-2.390625-2.1611328h-9.6992188z" fill="#0f0f0f"></path></g><g><path d="m61.4909554 100.500061h29.8990288c1.8662033 0 3.3238754-1.6122818 3.1363678-3.4690475l-3.0502243-30.2052002c-.1625977-1.6101456-1.5180359-2.8356018-3.1363678-2.8356018h-23.798584c-1.6183319 0-2.9737701 1.2254562-3.1363716 2.8356018l-3.0502205 30.2052002c-.1875039 1.8567657 1.2701644 3.4690475 3.1363716 3.4690475z" fill="#ffd9b0"></path></g><g><path d="m58.3520737 97.0292053c-.1850128 1.8573837 1.272892 3.4708557 3.137867 3.4708557h29.8985405c1.864975 0 3.3230591-1.613472 3.1380463-3.4708557l-3.0491562-30.2020798c-.1627884-1.613472-1.5171661-2.834507-3.1378632-2.834507h-4.1887054c2.2646408 3.2710304 3.5818024 7.2084007 3.5818024 11.4489555 0 11.3896942-9.5319443 20.618103-21.2768555 20.618103-2.7752457 0-5.4319611-.5181961-7.8593941-1.4577255z" fill="#edb57e"></path></g><g><path d="m91.3897934 101.2501144h-29.8989258c-1.1010742 0-2.15625-.4685059-2.8945313-1.2851563-.7382813-.8168945-1.0986328-1.9135742-.987793-3.0092773l3.050293-30.2053223c.2021484-2.0012207 1.8710938-3.5102539 3.8823242-3.5102539h23.7988281c2.0112305 0 3.6801758 1.5090332 3.8823242 3.5102539l3.050293 30.2053223c.1108398 1.095459-.2495117 2.1921387-.987793 3.0090332-.7387694.8168946-1.7939452 1.2854004-2.8950194 1.2854004zm-26.8486328-36.5100097c-1.2382813 0-2.265625.9289551-2.3901367 2.1611328l-3.050293 30.2053223c-.0688477.6843262.1469727 1.3422852.6083984 1.8522949.4609375.5102539 1.09375.7912598 1.7817383.7912598h29.8989258c.6879883 0 1.3208008-.2810059 1.7822266-.7915039.4614258-.5100098.6772461-1.1679688.6083984-1.8520508l-3.050293-30.2053223c-.1245117-1.2321777-1.1518555-2.1611328-2.3901367-2.1611328z" fill="#0f0f0f"></path></g><g><path d="m85.5099106 71.5240402c-.4140625 0-.75-.3356934-.75-.75 0-8.246582-3.3842773-15.2133789-7.390625-15.2133789s-7.390625 6.9667969-7.390625 15.2133789c0 .4143066-.3359375.75-.75.75s-.75-.3356934-.75-.75c0-9.3720703 3.9052734-16.7133789 8.890625-16.7133789s8.890625 7.3413086 8.890625 16.7133789c0 .4143067-.3359375.75-.75.75z" fill="#0f0f0f"></path></g><g><circle cx="85.51" cy="70.774" fill="#fff" r="1.85"></circle><path d="m85.5099106 73.374382c-1.4335938 0-2.6000977-1.1665039-2.6000977-2.6003418 0-1.4335938 1.1665039-2.6000977 2.6000977-2.6000977s2.6000977 1.1665039 2.6000977 2.6000977c-.0000001 1.4338379-1.166504 2.6003418-2.6000977 2.6003418zm0-3.7004394c-.6064453 0-1.1000977.4934082-1.1000977 1.1000977s.4936523 1.1003418 1.1000977 1.1003418 1.1000977-.4936523 1.1000977-1.1003418-.4936524-1.1000977-1.1000977-1.1000977z" fill="#0f0f0f"></path></g><g><circle cx="69.229" cy="70.774" fill="#fff" r="1.85"></circle><path d="m69.2286606 73.374382c-1.4335938 0-2.6000977-1.1665039-2.6000977-2.6003418 0-1.4335938 1.1665039-2.6000977 2.6000977-2.6000977s2.6000977 1.1665039 2.6000977 2.6000977c-.0000001 1.4338379-1.166504 2.6003418-2.6000977 2.6003418zm0-3.7004394c-.6064453 0-1.1000977.4934082-1.1000977 1.1000977s.4936523 1.1003418 1.1000977 1.1003418 1.1000977-.4936523 1.1000977-1.1003418-.4936524-1.1000977-1.1000977-1.1000977z" fill="#0f0f0f"></path></g></g></g><g><path d="m5.9435048 80.1629562c-.4140625 0-.75-.3356934-.75-.75v-32.8701171c0-.4143066.3359375-.75.75-.75s.75.3356934.75.75v32.8701172c0 .4143066-.3359375.7499999-.75.7499999z" fill="#0f0f0f"></path></g><g><path d="m5.9435048 40.4341965c-.4140625 0-.75-.3356934-.75-.75v-2.8146973c0-.4143066.3359375-.75.75-.75s.75.3356934.75.75v2.8146973c0 .4143066-.3359375.75-.75.75z" fill="#0f0f0f"></path></g><g><g><path d="m98.6772232 35.7891769c-2.6143951.5383987-4.6707993 2.6012993-5.2092972 5.2156982-.032402.1557007-.2399979.1557007-.2724991 0-.2658997-1.3103981-.9146042-2.4780998-1.8293991-3.3862991-.9017029-.9081993-2.0694046-1.5634003-3.3797989-1.8293991-.1557007-.0325012-.1557007-.2401009 0-.2724991 1.3103943-.2660027 2.478096-.9212036 3.3862991-1.8294029.9082947-.9081993 1.5569992-2.0758991 1.8228989-3.3862991.0325012-.1556988.240097-.1556988.2724991 0 .2659988 1.3104.9147034 2.4780998 1.8228989 3.3862991.9082031.9081993 2.0758972 1.5634003 3.3863983 1.8294029.1557007.0323983.1557007.2399979 0 .2724991z" fill="#aff2b6"></path></g><g><path d="m98.6798248 35.785778c-2.6197968.5379982-4.6751022 2.6021996-5.2131958 5.2219963-.0353012.1499023-.2381058.1499023-.2735062 0-.2556992-1.2525978-.8466949-2.3728981-1.6935959-3.2549973 2.028801-.3703995 3.5725021-2.0993996 3.6607971-4.2164001.035202.0529976.0881042.1058998.1322021.1499977.9085999.9085007 2.072998 1.5613022 3.3872986 1.825901.1499025.0353013.1499025.2470017.0000001.2735024z" fill="#7fd685"></path></g><g><path d="m93.3316879 41.8716965c-.4257813 0-.7836914-.2941895-.8706055-.7150879-.2324219-1.1435547-.793457-2.1818848-1.6235352-3.0058594-.8286133-.8347168-1.8647461-1.3959961-3.0009766-1.6264648-.4238281-.0888672-.7172852-.4467773-.7172852-.8713379s.293457-.7824707.7133789-.8703613c1.1376953-.230957 2.1772461-.7929688 3.0097656-1.6254883.8271484-.8273926 1.3867188-1.8666973 1.6181641-3.0053692.0874023-.423584.4458008-.7175293.8710938-.7175293s.7836914.2939453.8706055.7145996c.2319336 1.1416016.7915039 2.1809063 1.6186523 3.0082989.8325195.8325195 1.8720703 1.3945313 3.0058594 1.6245117.4238281.0883789.7172852.4465332.7172852.8713379s-.293457.782959-.7138672.8703613c-.0004883.0002441-.0009766.0002441-.0014648.0004883-2.3295898.4794922-4.1455078 2.2978516-4.6264648 4.6323242-.0869141.4213867-.4448242.7155762-.8706055.7155762zm-3.4335937-6.2189942c.7353516.3601074 1.4111328.8439941 2 1.4375.5913086.5866699 1.0742188 1.2624512 1.434082 2.0004883.7285156-1.4978027 1.9384766-2.7089844 3.434082-3.4372559-.7358398-.3596191-1.4130859-.8427734-2.0058594-1.435791-.5893555-.5891113-1.0703125-1.2646484-1.4287109-2.0002441-.3583984.7353516-.8393555 1.4108887-1.4287109 2.0002441-.5922852.5925293-1.2695313 1.0756836-2.0048828 1.4350586zm8.7792969.1364746h.0097656zm-.1528321-.7341308c-.0004883 0-.0009766 0-.0014648.0002441.0004883-.0002441.0009765-.0002441.0014648-.0002441z" fill="#0f0f0f"></path></g></g><g><g><path d="m11.9512072 96.8066635c0 2.0419006-1.6515007 3.6933975-3.6864004 3.6933975-2.0418 0-3.6933999-1.6514969-3.6933999-3.6933975 0-2.0348053 1.6515999-3.6864014 3.6933999-3.6864014 2.0348997 0 3.6864004 1.6515961 3.6864004 3.6864014z" fill="#c3c9fb"></path></g><g><path d="m11.9516068 96.8054581c0 2.0390015-1.6555996 3.694603-3.6858997 3.694603-1.5947003 0-2.9628-1.0195007-3.4769001-2.4397964.5576997.339798 1.2198997.5401993 1.9257998.5401993 2.039 0 3.6946998-1.6556015 3.6946998-3.6947021 0-.4269028-.0696993-.8451996-.2091999-1.2285995 1.0457.644798 1.7515001 1.8037031 1.7515001 3.1282957z" fill="#8693e2"></path></g><g><path d="m8.2647943 101.2501144c-2.4501958 0-4.4433599-1.9931641-4.4433599-4.4433594 0-2.4462891 1.9931641-4.4365234 4.4433599-4.4365234 2.4462891 0 4.4365234 1.9902344 4.4365234 4.4365234.0000001 2.4501954-1.9902343 4.4433594-4.4365234 4.4433594zm0-7.3798828c-1.6230474 0-2.9433599 1.3173828-2.9433599 2.9365234 0 1.6230469 1.3203125 2.9433594 2.9433599 2.9433594 1.6191406 0 2.9365234-1.3203125 2.9365234-2.9433594.0000001-1.6191406-1.3173827-2.9365234-2.9365234-2.9365234z" fill="#0f0f0f"></path></g></g><g><path d="m84.6617661 25.8721867c-.4140625 0-.75-.3356934-.75-.75v-2.791748c0-.4143066.3359375-.75.75-.75s.75.3356934.75.75v2.791748c0 .4143066-.3359375.75-.75.75z" fill="#0f0f0f"></path></g><g><path d="m84.6617661 19.2886906c-.4140625 0-.75-.3356934-.75-.75v-2.6645508c0-4.1242676-1.6459961-7.9711919-4.6347656-10.8322754-.2993164-.286377-.3095703-.7612305-.0234375-1.0603025.2866211-.3000488.7607422-.3095703 1.0605469-.0231934 3.2871094 3.1464841 5.0976563 7.378418 5.0976563 11.9157715v2.6645508c-.0000001.4143064-.3359376.7499998-.7500001.7499998z" fill="#0f0f0f"></path></g></g></svg>