<svg xmlns="http://www.w3.org/2000/svg" id="Layer_1" viewBox="0 0 105 105"><g><g><path d="m77.4537125 12.746213 14.1321487 67.119975c1.1817245 5.612587-2.4101334 11.120575-8.0228424 12.3022995l-38.5090179 8.108139c-5.6126633 1.1817245-11.1205559-2.4101563-12.3023911-8.0228348l-14.1321526-67.1199778c-1.1817226-5.612587 2.4101582-11.1205759 8.0228405-12.3022985l38.5090179-8.1081429c5.6126843-1.1817229 11.1205808 2.4101572 12.3023969 8.0228405z" fill="#dabcbc"></path></g><g><path d="m90.3611755 87.3042297c-1.4328537 2.4072952-3.8400497 4.2414474-6.8012848 4.8622513l-38.5055809 8.1099548c-5.6167908 1.184494-11.1189537-2.407196-12.3034477-8.0240784l-14.1279468-67.1147212c-.9361305-4.441946 1.1080742-8.8168335 4.7857361-11.0330772-.8597126 4.0597553-1.3086739 8.2819004-1.3086739 12.5995693 0 33.7102928 27.3197613 61.0299644 61.0205078 61.0299644 2.4454022 0 4.8621502-.1431961 7.2406902-.429863z" fill="#bc9595"></path></g><g><path d="m69.2810135 86.7820969c.3130112 1.4868317-.6384964 2.9458542-2.1253204 3.2588882l-7.9452782 1.672905c-1.4867287.3130341-2.9458542-.6384811-3.2588844-2.125206-.3130302-1.4868317.6384811-2.9458542 2.1252098-3.2588882l7.9453697-1.672905c1.4867325-.3130341 2.9458542.6384811 3.2589035 2.125206z" fill="#fff"></path></g><g><path d="m80.4919357 76.0281448-39.1358452 8.2400589c-2.3422394.493187-4.6408234-1.0057678-5.1340141-3.3481064l-10.90345-51.7852745c-.4931889-2.3423367 1.0057678-4.6409206 3.3481045-5.1340141l39.1358414-8.2401562c2.3422394-.4931889 4.6408234 1.0058632 5.1340179 3.3481026l10.90345 51.7853699c.4931889 2.3422413-1.0058651 4.6408329-3.3481045 5.1340198z" fill="#fff"></path></g><g><path d="m83.9133301 72.096962c-.1241837 1.8818207-1.4901733 3.524826-3.4197464 3.9354782l-39.1360397 8.2342377c-2.3403282.4967194-4.6424484-1.0029984-5.1391716-3.3433304l-10.8992482-51.7929192c-.4967232-2.3402348 1.0029984-4.6329918 3.3433266-5.129715l1.6334553-.3437901c-.9265804 3.400547-1.4233036 6.9733219-1.4233036 10.6699924 0 22.3526268 18.1208363 40.4731789 40.4638138 40.4731789 5.1391773.0000001 10.0490894-.9552382 14.5769138-2.7031325z" fill="#ddd"></path></g><g><path d="m42.8917274 101.2531891c-2.1362305 0-4.2285156-.6174316-6.0600586-1.8120117-2.4916992-1.6247559-4.2011719-4.1223145-4.8139648-7.032959l-14.1323223-67.119873c-.612793-2.9106445-.0556641-5.885498 1.5693359-8.3769531 1.6245117-2.4914551 4.1225586-4.2009277 7.0332031-4.8137207l38.5092793-8.1081546c2.9082031-.6130371 5.8847656-.0556641 8.3764648 1.5690916s4.2011719 4.1225591 4.8139648 7.0329595l14.1323242 67.1201172c.612793 2.9106445.0556641 5.885498-1.5693359 8.3769531-1.6245117 2.4914551-4.1225586 4.2009277-7.0332031 4.8137207l-38.5092812 8.1081543c-.7705077.1623534-1.5463866.2426757-2.3164062.2426757zm24.4189492-96.0058599c-.6665039 0-1.3374023.0695801-2.0048828.2099609l-38.5092773 8.1081543c-2.5180664.5302734-4.6796875 2.0095215-6.0854492 4.1652832s-1.8881836 4.7299805-1.3579102 7.2485352l14.1323223 67.119873c.5302734 2.5185547 2.0097656 4.6796875 4.1655273 6.0856934s4.7304688 1.8876953 7.2485352 1.3579102l38.5092812-8.1081543c2.5180664-.5302734 4.6796875-2.0095215 6.0854492-4.1652832s1.8881836-4.7299805 1.3579102-7.2485352l-14.1323262-67.1201167c-.5302734-2.5183105-2.0097656-4.6796875-4.1655273-6.0854497-1.5844727-1.0334472-3.3955079-1.5678711-5.2436524-1.5678711z" fill="#0f0f0f"></path></g><g><path d="m40.4620399 85.1118317c-2.3525391 0-4.4702148-1.6455078-4.9736328-4.0371094l-10.9038067-51.7854004c-.2797852-1.3288574-.0253906-2.6872559.7163086-3.824707.7421875-1.1374512 1.8823242-1.9179688 3.2114258-2.1977539l39.1357422-8.2399902c1.3291016-.2792969 2.6875-.0251465 3.824707.7163086 1.137207.7416992 1.9179688 1.8820801 2.1977539 3.2109375l10.9033203 51.7854004c.2797852 1.3288574.0253906 2.6872559-.7163086 3.824707-.7421875 1.1374512-1.8823242 1.9179688-3.2114258 2.1977539l-.1542969-.7338867.1542969.7338867-39.135746 8.2402344c-.3515605.0739745-.7026347.1096191-1.0483379.1096191zm28.2407265-68.6953125c-.2480469 0-.4975586.0258789-.7456055.078125l-39.1362305 8.2399902c-1.9335938.4072266-3.1757813 2.3117676-2.7685547 4.2456055l10.9038067 51.7854004c.1972656.9367676.7475586 1.7407227 1.5493164 2.2636719.8017578.5231934 1.7587891.7019043 2.6962891.505127l39.135746-8.2402344c1.9335938-.4072266 3.1757813-2.3117676 2.7685547-4.2456055l-10.9033222-51.7854004c-.1972656-.9367676-.7475586-1.7407227-1.5493164-2.2636719-.5893555-.3842774-1.2631836-.5830078-1.9506836-.5830078z" fill="#0f0f0f"></path></g><g><path d="m58.6431923 92.5232086c-1.6201172 0-3.0786133-1.1330566-3.4257813-2.7797852-.3974609-1.8894043.815918-3.7497559 2.7050781-4.1474609l7.9453163-1.6728516c.9135742-.1923828 1.8496094-.0175781 2.6337891.4931641.7832031.5109863 1.3203125 1.2961426 1.5131836 2.2111816.1928711.9152832.0175781 1.8505859-.4931641 2.6337891-.5107422.7834473-1.2958984 1.3210449-2.2114258 1.5136719l-7.9453163 1.6728516c-.2416991.0510254-.4833984.0754394-.7216796.0754394zm7.9501991-7.1760254c-.1386719 0-.277832.0144043-.4165039.0437012l-7.9458046 1.6728516c-.5229492.1101074-.9716797.4172363-1.2636719.8649902s-.3920898.9824219-.2822266 1.5053711c.2270508 1.0795898 1.2915039 1.7724609 2.3710938 1.5458984l7.9453163-1.6728516c1.0795898-.2272949 1.7729492-1.2907715 1.5454102-2.3706055-.1103516-.5229492-.4174805-.9716797-.8652344-1.2636719-.3286133-.2145995-.7045898-.3256835-1.0883789-.3256835z" fill="#0f0f0f"></path></g><g><path d="m40.7408485 16.4087067c-.347168 0-.6586914-.2424316-.7329102-.5957031-.0854492-.4052734.1738281-.8032227.5795898-.8884277l1.2617188-.265625c.402832-.0852051.8027344.1740723.8881836.5793457s-.1738281.8032227-.5795898.8884277l-1.2617188.265625c-.0517577.0109863-.1040038.0163574-.1552734.0163574z" fill="#0f0f0f"></path></g><g><path d="m45.1666298 15.477066c-.347168 0-.6586914-.2424316-.7329102-.5957031-.0854492-.4052734.1738281-.8029785.5791016-.8884277l8.2216797-1.7312012c.4033203-.0844727.8032227.1740723.8881836.5793457.0854492.4052734-.1738281.8029785-.5795898.8884277l-8.2207031 1.7312012c-.0522462.0109863-.1044923.0163574-.1557618.0163574z" fill="#0f0f0f"></path></g><g><path d="m17.7901669 54.3335114c-.34375 0-.6538086-.237793-.7314453-.5874023l-4.8466797-21.7832031c-.090332-.4042969.1645508-.8049316.5688477-.8950195.4072266-.0908203.8051758.1650391.8950195.5693359l4.8466797 21.7832031c.090332.4042969-.1645508.8049316-.5688477.8950195-.0551758.012207-.1098633.0180664-.1635742.0180664z" fill="#0f0f0f"></path></g><g><path d="m11.9381161 28.0300446c-.34375 0-.6538086-.237793-.7314453-.5871582l-.2709961-1.2167969c-.090332-.4042969.1645508-.8051758.5688477-.8952637.4042969-.0915527.8051758.1650391.8950195.5690918l.2709961 1.2167969c.090332.4042969-.1645508.8051758-.5688477.8952637-.0546875.012207-.1098633.0180664-.1635742.0180664z" fill="#0f0f0f"></path></g><g><path d="m88.0259552 11.9651546c1.3348999-.2708998 2.5245209-.9383993 3.4496994-1.8635998.9253006-.9251995 1.5860977-2.1148 1.8570938-3.4496999.0330048-.1585999.2445068-.1585999.277504 0 .2709961 1.3348999.9319 2.5245004 1.8571014 3.4496999.9251938.9252005 2.1147003 1.5927 3.4496994 1.8635998.1585999.0331001.1585999.2446003 0 .2776003-2.6632996.5485001-4.7583008 2.6500998-5.3068008 5.3133993-.0329971.1585999-.2444992.1585999-.277504 0-.2709961-1.3349991-.9317932-2.5244989-1.8636932-3.4497995-.9185791-.9250994-2.1082001-1.5925999-3.4431-1.8635998" fill="#ffd9b0"></path></g><g><path d="m98.919754 12.2393551c-2.6688995.5480995-4.7626038 2.6508999-5.3108063 5.3197002-.0358963.1527996-.2425995.1527996-.278595 0-.2606049-1.276001-.8626022-2.4173002-1.7253036-3.3159008 2.066803-.3773994 3.6394272-2.1386995 3.7293015-4.2952995.0359039.0538998.089798.1077995.1347046.1527996.9255981.9254999 2.1117935 1.5904999 3.4506989 1.8601007.1527175.0358992.1527175.2515994-.0000001.2785998z" fill="#edb57e"></path></g><g><path d="m93.4713211 18.4253082c-.4257813 0-.784668-.2944336-.8725586-.7155762-.237793-1.1691895-.8105469-2.2294922-1.6582031-3.0710449-.8466797-.8525391-1.9042969-1.4257813-3.0639648-1.6608887-.4023438-.0817871-.6635742-.4716797-.5874023-.8737793-.0761719-.4023438.1850586-.7922363.5878906-.8740234 1.1567383-.2346191 2.2177734-.8081055 3.0683594-1.6586914.8447266-.8449707 1.4160156-1.9060063 1.6523438-3.068604.0888672-.4255371.4477539-.7199707.8735352-.7199707.4262695 0 .7851563.2944336.8730469.7155762.2373047 1.1669922.8085938 2.2280278 1.6533203 3.0729985.8505859.8505859 1.9116211 1.4240723 3.0683594 1.6586914.4262695.0891113.7202148.4484863.7202148.8747559-.0004883.4260254-.2949219.784668-.7167969.8723145-2.3793945.4899902-4.2338867 2.3466797-4.7246094 4.7302246-.088379.4235839-.4472658.7180175-.8735353.7180175zm-3.5297852-6.321289c.7583008.3674316 1.4536133.8637695 2.0595703 1.4741211.6083984.6035156 1.1035156 1.2998047 1.4707031 2.0600586.7431641-1.5432129 1.9887695-2.7902832 3.5302734-3.5336914-.7573242-.3669434-1.4550781-.8625488-2.0649414-1.4726563-.605957-.6062012-1.0996094-1.302002-1.465332-2.0598145-.3657227.7575684-.859375 1.4533691-1.4658203 2.0598145-.6093749.6096191-1.3066406 1.1052246-2.0644531 1.472168z" fill="#0f0f0f"></path></g><g><g><path d="m12.0170507 58.8398247c0 2.0625992-1.6683006 3.7308998-3.7238007 3.7308998-2.0624995 0-3.7307997-1.6683006-3.7307997-3.7308998 0-2.0554008 1.6683002-3.7237015 3.7307997-3.7237015 2.0555001 0 3.7238007 1.6683006 3.7238007 3.7237015z" fill="#c3c9fb"></path></g><g><path d="m12.0173502 58.8386269c0 2.0597-1.6722994 3.7320976-3.7231798 3.7320976-1.6108198 0-2.9928198-1.0298996-3.5121198-2.4645996.5633998.3432999 1.2322998.5457001 1.9453001.5457001 2.0596995 0 3.7321-1.6724014 3.7321-3.7321014 0-.4312973-.0704002-.8537979-.2112808-1.2411003 1.0562801.6514014 1.7691803 1.8220023 1.7691803 3.1600036z" fill="#8693e2"></path></g><g><path d="m8.2930965 63.320816c-2.4707036 0-4.4804688-2.0102539-4.4804688-4.480957 0-2.4667969 2.0097654-4.4736328 4.4804688-4.4736328 2.4672852 0 4.4741211 2.0068359 4.4741211 4.4736328 0 2.4707031-2.0068359 4.480957-4.4741211 4.480957zm0-7.4545898c-1.6435552 0-2.9804692 1.3339844-2.9804692 2.9736328 0 1.6437988 1.3369141 2.980957 2.9804692 2.980957 1.6401367 0 2.9741211-1.3371582 2.9741211-2.980957 0-1.6396484-1.3339843-2.9736328-2.9741211-2.9736328z" fill="#0f0f0f"></path></g></g><g><g><path d="m42.4088173 67.4221344c-.3461914 0-.6572266-.2412109-.7324219-.5935059-.0864258-.4052734.171875-.8037109.5766602-.8901367l30.476078-6.5085449c.4018555-.0856934.8037109.1711426.8901367.5766602.0864258.4052734-.171875.8037109-.5766602.8901367l-30.476078 6.5085449c-.0527343.0112305-.1054687.0168457-.1577148.0168457z" fill="#0f0f0f"></path></g><g><path d="m47.4366493 72.6892242c-.3461914 0-.6572266-.2412109-.7324219-.5935059-.0864258-.4052734.171875-.8037109.5766602-.8901367l23.010746-4.9140625c.4038086-.0844727.8037109.1713867.8901367.5766602s-.171875.8037109-.5766602.8901367l-23.010746 4.9140625c-.0527343.0112305-.1054687.0168457-.1577148.0168457z" fill="#0f0f0f"></path></g><g><path d="m52.2852821 77.4174957c-.3461914 0-.6572266-.2412109-.7324219-.5935059-.0864258-.4052734.171875-.8037109.5766602-.8901367l15.748539-3.3632813c.4042969-.0852051.8041992.1713867.8901367.5766602.0864258.4052734-.171875.8037109-.5766602.8901367l-15.7485389 3.3632813c-.0527344.0112305-.1054688.0168457-.1577149.0168457z" fill="#0f0f0f"></path></g></g><g><path d="m65.6092148 25.7406292 5.035614 23.118681c.4962387 2.278244-.9483643 4.5274048-3.2266083 5.0236397l-23.1291809 5.0379028c-2.2782402.4962387-4.527401-.9483643-5.0236397-3.2266045l-5.035614-23.1186829c-.4962387-2.278244.9483604-4.5274029 3.2266045-5.0236397l23.1291809-5.0379028c2.278244-.4962368 4.5274048.9483624 5.0236435 3.2266064z" fill="#aff2b6"></path></g><g><path d="m65.0246658 24.3567734c-.4750137-.076355-.9742126-.057476-1.480442.0527878l-.0171776.0037422c-14.9818001 3.2632732-24.5727806 18.1958809-21.3095093 33.177681.1102638.5062294.3092918.9661369.5781097 1.3749657-1.6954842-.2328072-3.1399078-1.500042-3.5268059-3.2762985l-5.0350837-23.1162492c-.4952888-2.2738934.9544525-4.5310574 3.2282944-5.0263367l23.1248894-5.0369663c1.7676124-.3850136 3.5207939.4015675 4.437725 1.846674z" fill="#7fd685"></path></g><g><path d="m43.3902626 59.7680817c-2.2871094 0-4.3510742-1.5905762-4.8579102-3.9140625l-5.0356445-23.1188965c-.5830078-2.6787109 1.121582-5.3325195 3.7998047-5.9160156l23.1293945-5.0380859c2.6762695-.5820313 5.3330116 1.1210938 5.9160194 3.8000488l5.0356445 23.1186523c.2827148 1.2973633.0429688 2.6274414-.6743164 3.744873-.7177734 1.1174316-1.8276367 1.8886719-3.1254883 2.1713867l-23.1289101 5.0378418c-.3549803.0771485-.7094725.1142579-1.0585936.1142579zm18.1005859-36.6020508c-.2480469 0-.4975586.0266113-.7456055.0808105l-23.1293945 5.0380859c-1.8706055.4072266-3.0605469 2.260498-2.6533203 4.1308594l5.0356445 23.1188965c.4072266 1.8708496 2.2661133 3.0605469 4.1313477 2.6533203l23.1289101-5.0378418c.90625-.1972656 1.6811523-.7358398 2.1826172-1.5161133.5009766-.7802734.668457-1.7089844.4707031-2.6149902l-5.0356445-23.1186523c-.1972656-.90625-.7353516-1.6813965-1.5156288-2.182373-.5668946-.3640137-1.2119141-.552002-1.869629-.552002z" fill="#0f0f0f"></path></g><g><g><path d="m60.9213371 33.2705307.1863327 8.9248734-13.2588424 2.9973907-3.8288803-8.1014099z" fill="#ffd9b0"></path></g><g><path d="m61.1094055 42.191864-13.2579155 3.0036354-1.0894203-2.2953949 7.1607857-1.6212006c2.978672-.6743698 5.0714264-3.3517532 5.0065155-6.4051208l-.0243073-1.1432419 2.0181732-.4584045z" fill="#edb57e"></path></g><g><path d="m49.7803993 50.2422028c-.2871094 0-.5551758-.1650391-.6801758-.434082l-7.3105469-15.737793-2.7436523.6203613c-.4057617.092041-.8061523-.1621094-.8969727-.5661621-.0913086-.4038086.1621094-.8054199.565918-.8967285l3.3344727-.7539063c.3500977-.0778809.6972656.095459.8457031.4155273l7.3105469 15.737793 11.7548828-2.6574707c.4033203-.0917969.8056641.1621094.8969727.5661621.0913086.4038086-.1621094.8054199-.565918.8967285l-12.3457031 2.7910156c-.0556641.0126954-.1108399.0185548-.1655274.0185548z" fill="#0f0f0f"></path></g><g><path d="m47.8487587 45.9428864c-.2851563 0-.5522461-.1630859-.6782227-.4294434l-3.8286133-8.1015625c-.097168-.2058105-.0957031-.4445801.0039063-.6491699s.2871094-.3527832.5087891-.402832l16.9013672-3.8208008c.2192383-.0498047.4506836.0019531.6274414.140625.1777344.138916.2832031.3500977.2880859.5751953l.1860352 8.9248047c.0073242.3562012-.2368164.6687012-.5844727.7470703l-13.2587891 2.9975586c-.055664.0126953-.1108398.0185547-.1655273.0185547zm-2.7509766-8.3261719 3.1723633 6.7119141 12.074707-2.7297363-.1538086-7.3942871z" fill="#0f0f0f"></path></g><g><g><path d="m57.2149696 43.8254547c-.3427734 0-.6523438-.2365723-.730957-.5849609l-1.9287109-8.5310059c-.0913086-.4038086.1621094-.8054199.565918-.8967285.4042969-.0927734.8056641.1623535.8969727.5661621l1.9287109 8.5310059c.0913086.4038086-.1621094.8054199-.565918.8967285-.0556641.0126953-.1113282.0187988-.1660157.0187988z" fill="#0f0f0f"></path></g><g><path d="m51.5826454 45.0988922c-.3427734 0-.6523438-.2365723-.730957-.5849609l-1.9287109-8.5310059c-.0913086-.4038086.1621094-.8054199.565918-.8967285.4042969-.0922852.8056641.1621094.8969727.5661621l1.9287109 8.5310059c.0913086.4038086-.1621094.8054199-.565918.8967285-.0556641.0126953-.1113282.0187988-.1660157.0187988z" fill="#0f0f0f"></path></g></g><g><g><path d="m58.3568039 49.270813c.219429.9706306 1.1470947 1.5118446 2.0662956 1.3040428s1.5235443-1.0953522 1.3041153-2.0659828c-.2078743-.9195137-1.1352272-1.4608002-2.0544281-1.2529984s-1.5238533 1.0954209-1.3159828 2.0149384z" fill="#fff"></path><path d="m60.0206337 51.3703766c-1.1347656 0-2.1323242-.7700195-2.3955078-1.934082 0 0 0-.0002441 0-.0004883-.2944336-1.3041992.5498047-2.6103516 1.8823242-2.911377 1.3339844-.3032227 2.6567383.5151367 2.9511719 1.8188477.3061523 1.3552246-.5151367 2.6567383-1.8701172 2.9631348-.1914063.0432128-.3813477.0639648-.5678711.0639648zm-.9326172-2.2651367c.1235352.5439453.628418.8598633 1.1694336.7382813.543457-.1230469.8608398-.6257324.7382813-1.1694336-.1123047-.4973145-.6318359-.8046875-1.1572266-.6867676-.5258789.1188964-.8623047.6203613-.7504883 1.1179199z" fill="#0f0f0f"></path></g><g><path d="m51.2233353 50.8834572c.219429.9706306 1.1470947 1.5118446 2.0662956 1.3040428.9192047-.2078018 1.5238571-1.0954208 1.3044281-2.0660553-.2078743-.9195137-1.1355362-1.4607239-2.0547409-1.2529259-.9192009.2078018-1.5238533 1.0954209-1.3159828 2.0149384z" fill="#fff"></path><path d="m52.8878212 52.9829254c-1.1352539 0-2.1323242-.7700195-2.3959961-1.9338379-.2949219-1.3041992.5493164-2.6105957 1.8818359-2.9121094.6401367-.1445313 1.2944336-.0397949 1.8466797.2924805.5673828.3415527.9599609.8837891 1.1049805 1.5268555.1499023.6616211.0336914 1.3334961-.3266602 1.8913574-.3525391.5456543-.9008789.9260254-1.543457 1.0712891-.1914062.0432129-.3813476.0639648-.5673828.0639648zm-.9331055-2.2648926c.1230469.5429688.6225586.859375 1.1694336.7380371.2578125-.0583496.4760742-.2084961.6147461-.4226074.0986328-.152832.2006836-.4064941.1235352-.746582-.0541992-.2404785-.2016602-.4433594-.4155273-.5720215-.2207031-.1323242-.4848633-.1733398-.7421875-.1149902-.525879.1191406-.8623048.6208496-.7500001 1.118164z" fill="#0f0f0f"></path></g></g></g><g><g><g><ellipse cx="25.825" cy="78.836" fill="#ffd9b0" rx="16.265" ry="16.265" transform="matrix(.535 -.845 .845 .535 -54.607 58.519)"></ellipse></g><g><path d="m38.8093109 88.6384811c-2.8128586 3.7128601-7.1895752 6.203331-12.1981354 6.4450378-8.9716415.4324341-16.5983124-6.4861221-17.0307846-15.4576569-.2577209-5.2852707 2.0389614-10.1065979 5.8040819-13.2623367-2.2279959 2.933548-3.4723434 6.6380539-3.2832031 10.6061478.4375362 8.97332 8.0626116 15.8970566 17.035881 15.4593353 3.6982337-.1762313 7.0429831-1.5771941 9.6721602-3.7905273z" fill="#edb57e"></path></g><g><ellipse cx="25.825" cy="78.836" fill="#fff" rx="11.555" ry="11.555" transform="matrix(.528 -.849 .849 .528 -54.763 59.145)"></ellipse></g><g><path d="m35.4307556 85.2575989c-1.9631958 2.9361572-5.2465706 4.9393768-9.0484009 5.1212387-6.3697281.3070755-11.7917681-4.606987-12.0971642-10.9818192-.1814833-3.6999588 1.4016676-7.0779877 4.0053673-9.3167419-1.3347092 1.990303-2.0586624 4.4081345-1.9350739 6.9811478.3104782 6.3765564 5.7258568 11.2940216 12.1022606 10.98349 2.6715642-.1307068 5.0922433-1.1636353 6.9730111-2.7873154z" fill="#ddd"></path></g><g><path d="m25.8155575 95.8518219c-9.0068359 0-16.5444336-7.0991211-16.9858398-16.190918-.4545898-9.3713379 6.7998047-17.3652344 16.1713867-17.8198242 9.3642559-.4631348 17.3642559 6.8000488 17.819334 16.1708984.4545898 9.3710938-6.7998047 17.3649902-16.1713848 17.8195801-.2788086.0136719-.5571289.0202637-.8334961.0202637zm.0180664-32.5310059c-.2524414 0-.5048828.0061035-.7602539.0183105-8.5449219.414795-15.159668 7.7038575-14.7456055 16.2490235.4145508 8.5449219 7.6899414 15.1503906 16.2490234 14.7453613 8.54492-.4147949 15.1596661-7.7038574 14.7456036-16.2487793-.4023437-8.290039-7.2763672-14.763916-15.4887676-14.763916z" fill="#0f0f0f"></path></g><g><path d="m25.8111629 91.141861c-3.0610352 0-5.972168-1.121582-8.2553711-3.1933594-2.434082-2.2087402-3.8623047-5.2331543-4.0214844-8.5158691s.9697266-6.4313965 3.1782227-8.8654785c2.2089844-2.434082 5.2333984-3.8623047 8.5166016-4.0214844 6.7529297-.3295898 12.557127 4.9169922 12.8867168 11.6945801.1591797 3.2827148-.9697266 6.4311523-3.1782227 8.8652344-2.2089844 2.434082-5.2333965 3.8623047-8.5165997 4.0214844-.2036132.0100096-.4072264.0148925-.6098632.0148925zm.0200196-23.1108399c-.1762695 0-.3520508.0041504-.5297852.0126953-2.8823242.1398926-5.5380859 1.394043-7.4780273 3.5314941-1.9394531 2.1374512-2.9306641 4.9020996-2.7910156 7.784668s1.394043 5.5383301 3.5317383 7.4777832c2.137207 1.939209 4.8959961 2.9296875 7.784668 2.7912598 2.8823242-.1398926 5.5380859-1.394043 7.4780254-3.5314941 1.9394531-2.137207 2.9306641-4.9018555 2.7910156-7.7844238-.2802735-5.7734376-5.0678692-10.2819825-10.7866192-10.2819825z" fill="#0f0f0f"></path></g><g><g><path d="m24.4273739 79.6513824c-.7592773 0-1.480957-.2780762-2.046875-.791748-.6035156-.5476074-.9575195-1.2976074-.9970703-2.1115723-.081543-1.6806641 1.2192383-3.1142578 2.8999023-3.1955566l2.5649414-.1242676c.8095703-.043457 1.5947266.2402344 2.1982422.7878418.6035156.5478516.9575195 1.2978516.9970703 2.1118164.0200195.4138184-.2988281.7653809-.7128906.7854004-.4038086.0283203-.7651367-.2990723-.7851563-.7126465-.0200195-.4140625-.2001953-.795166-.5068359-1.0737305-.3076172-.2785645-.7109375-.4196777-1.1176758-.4006348l-2.5654297.1242676c-.8540039.0415039-1.515625.7702637-1.4741211 1.6245117.0200195.4140625.2001953.795166.5068359 1.0737305.3071289.2783203.7006836.4204102 1.1176758.4006348l2.5654297-.1242676c.4135742-.0231934.7646484.2988281.7851563.7126465.0200195.4138184-.2988281.7653809-.7128906.7854004l-2.5649414.1242676c-.050293.0026855-.1010742.0039062-.1513672.0039062z" fill="#0f0f0f"></path></g><g><path d="m24.6524715 84.2483063c-1.6152344.0002441-2.9667969-1.2729492-3.0458984-2.9033203-.0200195-.4138184.2988281-.7653809.7128906-.7854004.4130859-.0258789.7646484.2990723.7851563.7126465.0415039.8544922.7768555 1.5195313 1.625 1.4743652l2.5649414-.1245117c.8540039-.0415039 1.515625-.7702637 1.4741211-1.6245117-.0200195-.4140625-.2001953-.795166-.5068359-1.0737305-.3076172-.2785645-.7089844-.4228516-1.1176758-.4006348l-2.5654297.1242676c-.4038086.0258789-.7651367-.2990723-.7851563-.7126465-.0200195-.4138184.2988281-.7653809.7128906-.7854004l2.5649414-.1242676c.8144531-.0424805 1.5952148.2402344 2.1982422.7878418.6035156.5478516.9575195 1.2978516.9970703 2.1118164.081543 1.6804199-1.2192383 3.1140137-2.8999023 3.1953125l-2.5649414.1245117c-.0498047.0024415-.0996094.0036622-.1494141.0036622z" fill="#0f0f0f"></path></g><g><path d="m25.6016903 74.9892731c-.3974609 0-.7290039-.3122559-.7485352-.713623l-.0595703-1.2272949c-.0200195-.4138184.2988281-.7653809.7128906-.7854004.4052734-.020752.7651367.2988281.7851563.7126465l.0595703 1.2272949c.0200195.4138184-.2988281.7653809-.7128906.7854004-.012207.0007323-.0244141.0009765-.0366211.0009765z" fill="#0f0f0f"></path></g><g><path d="m26.1070614 85.4106598c-.3974609 0-.7290039-.3122559-.7485352-.713623l-.0595703-1.2272949c-.0200195-.4138184.2988281-.7653809.7128906-.7854004.4077148-.0285645.7651367.2990723.7851563.7126465l.0595703 1.2272949c.0200195.4138184-.2988281.7653809-.7128906.7854004-.0122071.0007323-.0244141.0009765-.0366211.0009765z" fill="#0f0f0f"></path></g></g></g><g><path d="m22.0943661 100.6237946c-.0483398 0-.0966797-.0046387-.1455078-.0144043-4.3549805-.8557129-8.340332-2.9545898-11.5249023-6.0695801-.2958984-.2895508-.3012695-.7644043-.0117188-1.0605469.2895508-.2963867.7641602-.3017578 1.0605469-.0117188 2.9750977 2.9101563 6.6977539 4.8708496 10.7651367 5.670166.4067383.079834.6713867.4741211.5913086.8803711-.0703125.3576661-.3837891.605713-.7348633.605713z" fill="#0f0f0f"></path></g><g><path d="m26.3800106 101.0388336c-.3325195 0-.6630859-.0070801-.9921875-.0212402-.4135742-.0178223-.7348633-.3676758-.7172852-.7814941.0180664-.4135742.3549805-.7404785.7817383-.717041.6508789.027832 1.3100586.0263672 1.9746094-.0056152.4018555-.0283203.7651367.2990723.7851563.7126465.0200195.4138184-.2988281.7653809-.7128906.7854004-.3740235.0183104-.7475587.0273436-1.1191407.0273436z" fill="#0f0f0f"></path></g></g><g><g><g><ellipse cx="86.826" cy="36.024" fill="#ff84a0" rx="13.611" ry="13.611" transform="matrix(.535 -.845 .845 .535 9.967 90.146)"></ellipse></g><g><path d="m97.6913986 44.2270622c-2.3538818 3.1070251-6.016449 5.1911278-10.207756 5.3933907-7.5077362.3618774-13.8899536-5.4277687-14.2518616-12.9354172-.2156677-4.4228706 1.7062607-8.4574986 4.8570251-11.0983124-1.8644485 2.4548798-2.9057617 5.5549164-2.7474823 8.8755341.3661499 7.50914 6.7470322 13.3031235 14.2561264 12.9368248 3.0947953-.1474762 5.893776-1.3198395 8.0939484-3.17202z" fill="#f76189"></path></g><g><ellipse cx="86.826" cy="36.024" fill="#fff" rx="9.67" ry="9.67" transform="matrix(.528 -.849 .849 .528 10.39 90.743)"></ellipse></g><g><path d="m94.8641281 41.3978386c-1.6428604 2.4570618-4.3904877 4.1334152-7.5719681 4.2855988-5.3303757.2569733-9.8676987-3.8552589-10.1232605-9.1898994-.1518707-3.096241 1.1729507-5.9230747 3.3518066-7.796526-1.1169281 1.6655426-1.7227478 3.6888561-1.6193314 5.8420277.259819 5.3360901 4.7915649 9.4511681 10.127533 9.1913071 2.2356416-.1093789 4.2613374-.9737664 5.8352204-2.3325082z" fill="#ddd"></path></g><g><path d="m86.8180008 50.3857574c-7.6020508.0002442-13.9643555-5.9919433-14.3364258-13.6655273-.1860352-3.8312988 1.1313477-7.5058594 3.7094727-10.3466797 2.5776367-2.8408203 6.1074219-4.5078125 9.9389648-4.6936035 7.9057617-.3864746 14.6567383 5.7392578 15.0400391 13.6486816.1860352 3.8312988-1.1313477 7.5056152-3.7094727 10.3464355-2.5776367 2.8408203-6.1074219 4.5078125-9.9389648 4.6936035-.2353516.0114747-.4702149.0170899-.7036133.0170899zm.0146484-27.2229003c-.2094727 0-.4189453.0048828-.6303711.0151367-7.0830078.34375-12.5664063 6.3862305-12.2226563 13.4694824.34375 7.0830078 6.3813477 12.5646973 13.4697266 12.2231445 3.4306641-.1665039 6.5917969-1.6594238 8.9003906-4.2033691 2.309082-2.5441895 3.4887695-5.8349609 3.3222656-9.2658691-.333496-6.8720704-6.0317382-12.2385254-12.8393554-12.2385254z" fill="#0f0f0f"></path></g><g><path d="m86.8199539 46.4441071c-5.515625 0-10.1313477-4.347168-10.4013672-9.9147949-.1347656-2.7797852.8208008-5.4458008 2.6914063-7.5070801 1.8701172-2.0610352 4.4311523-3.2705078 7.2114258-3.4052734 2.7700195-.1376953 5.4453125.8205566 7.5063477 2.6914063 2.0610352 1.8706055 3.2705078 4.4313965 3.4052734 7.2111816.2783203 5.7385254-4.1635742 10.6337891-9.9023438 10.9121094-.1708984.0083007-.3413086.0124511-.5107422.0124511zm.0161133-19.3398438c-.1469727 0-.2939453.0036621-.4423828.0107422-2.3793945.1154785-4.5717773 1.1508789-6.1728516 2.9152832-1.6015625 1.7646484-2.4194336 4.0466309-2.3041992 6.4262695.2387695 4.9123535 4.4169922 8.7160645 9.3417969 8.4770508 4.9121094-.2385254 8.7148438-4.4289551 8.4765625-9.3413086-.1157227-2.3796387-1.1508789-4.5720215-2.9150391-6.1730957-1.6547851-1.501709-3.7651367-2.3149414-5.9838867-2.3149414z" fill="#0f0f0f"></path></g></g></g><g><path d="m91.4187927 35.6848679-1.722847 1.6759338.407135 2.370369c.1097488.6472778-.5690155 1.1380234-1.1484756.8300667l-2.1302261-1.1173744-2.125 1.1173744c-.5795898.3079567-1.2582245-.1827888-1.1486053-.8300667l.4072571-2.370369-1.7229691-1.6759338c-.469841-.4596443-.208786-1.2583542.4384842-1.3524246l2.3808289-.3444138 1.0651093-2.1564827c.2871857-.5845623 1.1278305-.5845623 1.4148865 0l1.0651093 2.1564827 2.3808212.3444138c.6474073.0940704.9032286.8927802.4384916 1.3524246z" fill="#ff84a0"></path></g><g><path d="m91.4231567 35.6870728-1.7299805 1.6699219.4101563 2.3701172c.1098633.6499023-.5700684 1.1396484-1.1499023.8295898l-2.130127-1.1098633-2.119873 1.1098633c-.5800781.3100586-1.2602539-.1796875-1.1501465-.8295898l.3100586-1.8603516c.1999512.0302734.4099121.0400391.619873.0400391 2.3200684 0 4.2099609-1.7197266 4.3000488-3.8896484l2.1999512.3198242c.6401368.0898436.9001465.8901366.4399414 1.3500976z" fill="#f76189"></path></g><g><path d="m84.3277664 41.405777c-.315918 0-.6303711-.0986328-.8999023-.2929688-.4790039-.3461914-.715332-.923584-.6162109-1.5070801l.340332-1.982666-1.4399414-1.4006348c-.4243164-.4152832-.5727539-1.0214844-.3896484-1.5839844.1835938-.5617676.659668-.9633789 1.2431641-1.0480957l1.9907227-.2880859.890625-1.8027344c.2597656-.527832.7885742-.8564453 1.3798828-.8564453h.0004883c.5917969.0002441 1.1206055.3288574 1.3803711.8579102l.8896484 1.8012695 1.9902344.2880859c.5810547.0842285 1.0561523.4836426 1.2397461 1.0424805.1850586.5622559.0390625 1.1696777-.3813477 1.5852051-.0014648.0014648-.0029297.0029297-.0043945.0043945l-1.4394531 1.4006348.340332 1.9812012c.0991211.5849609-.137207 1.1623535-.6162109 1.5085449-.4794922.3459473-1.1005859.3876953-1.6235352.1108398l-1.777832-.9326172-1.7763672.934082c-.2275392.1208497-.4746095.1806642-.7207033.1806642zm2.496582-2.7119141c.1196289 0 .2392578.0285645.3481445.0859375l2.1303711 1.1174316-.3461914-2.4094238c-.0419922-.2436523.0390625-.4921875.2163086-.6645508l1.7202148-1.673584c.0087891-.0087891.0180664-.0209961.0092773-.0480957l-2.4106445-.3713379c-.2441406-.0354004-.4555664-.1887207-.5649414-.4101563l-1.0649414-2.1564941-1.1352539 2.1564941c-.109375.2214355-.3208008.3747559-.5649414.4101563l-2.3808594.3444824 1.7001953 1.7485352c.1772461.1723633.2583008.4208984.2163086.6645508l-.4072266 2.3703613 2.1850586-1.078125c.1093752-.057373.2290041-.0861816.3491212-.0861816zm4.5942383-3.0090332h.0097656z" fill="#0f0f0f"></path></g></g></svg>